<?xml version="1.0" encoding="UTF-8" standalone="no"?>
<!DOCTYPE svg PUBLIC "-//W3C//DTD SVG 1.1//EN" "http://www.w3.org/Graphics/SVG/1.1/DTD/svg11.dtd">
<svg width="100%" height="100%" viewBox="0 0 492 492" version="1.1" xmlns="http://www.w3.org/2000/svg" xmlns:xlink="http://www.w3.org/1999/xlink" xml:space="preserve" xmlns:serif="http://www.serif.com/" style="fill-rule:evenodd;clip-rule:evenodd;stroke-linecap:round;stroke-linejoin:round;stroke-miterlimit:1.5;">
    <g transform="matrix(72,0,0,72,0,0)">
        <path id="_439533944" d="M0.849,1.351L0.839,1.332C0.848,1.322 0.856,1.312 0.864,1.302L0.849,1.351Z" style="fill:rgb(129,202,204);"/>
        <path id="_439534040" d="M0.103,3.423L0.178,3.554L0.121,3.758C0.11,3.648 0.104,3.536 0.103,3.423Z" style="fill:rgb(170,219,221);"/>
        <path id="_439533992" d="M0.178,3.554L0.103,3.423C0.103,3.42 0.103,3.417 0.103,3.413C0.103,3.361 0.105,3.308 0.107,3.256L0.178,3.554Z" style="fill:rgb(162,215,218);"/>
        <path id="_439533920" d="M1.189,5.864C1.189,5.864 1.965,5.72 1.965,5.72L1.875,6.345C1.626,6.214 1.395,6.052 1.189,5.864Z" style="fill:rgb(196,230,231);"/>
        <path id="_439534088" d="M0.879,5.542L1.448,3.309L1.965,5.72L1.189,5.864C1.078,5.764 0.975,5.656 0.879,5.542Z" style="fill:rgb(189,228,228);"/>
        <path id="_439533008" d="M1.448,3.309L0.199,2.619C0.219,2.541 0.241,2.464 0.266,2.388L1.52,2.109L1.448,3.309L1.448,3.309Z" style="fill:rgb(168,219,220);"/>
        <path id="_439533320" d="M0.839,1.332L0.849,1.351L0.822,1.355C0.827,1.347 0.839,1.332 0.839,1.332Z" style="fill:rgb(134,204,205);"/>
        <path id="_439533200" d="M0.822,1.355C0.822,1.355 0.849,1.351 0.849,1.351L0.656,1.582C0.708,1.504 0.763,1.428 0.822,1.355Z" style="fill:rgb(146,209,211);"/>
        <path id="_439533728" d="M0.656,1.582L0.849,1.351L1.52,2.109L0.266,2.388C0.359,2.1 0.492,1.829 0.656,1.582L0.656,1.582Z" style="fill:rgb(155,212,215);"/>
        <path id="_439533608" d="M0.178,3.554L0.107,3.256C0.117,3.037 0.149,2.825 0.199,2.619L1.448,3.309L0.178,3.554Z" style="fill:rgb(170,219,221);"/>
        <path id="_439533344" d="M0.207,4.239L1.448,3.309L0.879,5.542C0.565,5.169 0.332,4.726 0.207,4.239L0.207,4.239Z" style="fill:rgb(185,226,227);"/>
        <path id="_439533368" d="M0.121,3.758L0.178,3.554L1.448,3.309L0.207,4.239C0.167,4.083 0.138,3.922 0.121,3.758L0.121,3.758Z" style="fill:rgb(179,223,224);"/>
        <path id="_439533464" d="M2.791,4.643L1.448,3.309L2.336,3.052L2.791,4.643Z" style="fill:rgb(188,227,228);"/>
        <path id="_439533104" d="M2.336,3.052L1.52,2.109L2.089,1.13L2.336,3.052Z" style="fill:rgb(165,218,219);"/>
        <path id="_439533224" d="M1.448,3.309L1.52,2.109L2.336,3.052L1.448,3.309Z" style="fill:rgb(178,222,224);"/>
        <path id="_439532288" d="M4.67,2.623L4.009,1.436L5.151,0.596C5.198,0.625 5.245,0.656 5.291,0.687L4.67,2.623L4.67,2.623Z" style="fill:rgb(154,212,214);"/>
        <path id="_439532936" d="M0.849,1.351L0.864,1.302C1.03,1.102 1.218,0.922 1.426,0.766L2.089,1.13L0.849,1.351L0.849,1.351Z" style="fill:rgb(138,205,208);"/>
        <path id="_439532744" d="M1.52,2.109L0.849,1.351L2.089,1.13L1.52,2.109Z" style="fill:rgb(151,212,213);"/>
        <path id="_439532264" d="M2.089,1.13L1.426,0.766C1.628,0.615 1.847,0.486 2.08,0.383L2.089,1.13Z" style="fill:rgb(134,204,205);"/>
        <path id="_439532456" d="M1.965,5.72L1.448,3.309L2.791,4.643L1.965,5.72Z" style="fill:rgb(192,228,229);"/>
        <path id="_439532720" d="M4.35,4.325L3.483,3.737L4.67,2.623L4.35,4.325Z" style="fill:rgb(187,226,228);"/>
        <path id="_439532576" d="M1.875,6.345C1.875,6.345 1.965,5.72 1.965,5.72L2.566,6.614C2.324,6.55 2.092,6.459 1.875,6.345Z" style="fill:rgb(198,231,232);"/>
        <path id="_439532528" d="M3.483,3.737L4.009,1.436L4.67,2.623L3.483,3.737Z" style="fill:rgb(173,220,222);"/>
        <path id="_439532240" d="M2.089,1.13L2.08,0.383C2.195,0.332 2.313,0.288 2.434,0.251L3.524,0.481L2.089,1.13L2.089,1.13Z" style="fill:rgb(134,204,205);"/>
        <path id="_439532912" d="M2.791,4.643L2.336,3.052L3.483,3.737L2.791,4.643Z" style="fill:rgb(189,228,228);"/>
        <path id="_439532216" d="M3.627,6.663L1.965,5.72L2.791,4.643L3.627,6.663Z" style="fill:rgb(200,231,233);"/>
        <path id="_439532120" d="M2.566,6.614C2.566,6.614 1.965,5.72 1.965,5.72L3.627,6.663L3.512,6.722C3.479,6.723 3.446,6.723 3.413,6.723C3.12,6.723 2.837,6.685 2.566,6.614Z" style="fill:rgb(202,233,234);"/>
        <path id="_439531928" d="M3.483,3.737L2.336,3.052L4.009,1.436L3.483,3.737Z" style="fill:rgb(178,222,224);"/>
        <path id="_439531496" d="M2.336,3.052L2.089,1.13L4.009,1.436L2.336,3.052Z" style="fill:rgb(162,215,218);"/>
        <path id="_439531664" d="M4.009,1.436L2.089,1.13L3.524,0.481L4.009,1.436Z" style="fill:rgb(144,209,211);"/>
        <path id="_439532048" d="M3.512,6.722C3.512,6.722 3.627,6.663 3.627,6.663L3.653,6.715C3.606,6.718 3.559,6.72 3.512,6.722Z" style="fill:rgb(210,236,236);"/>
        <path id="_439532000" d="M3.627,6.663L2.791,4.643L4.257,6.295L3.627,6.663Z" style="fill:rgb(204,234,235);"/>
        <path id="_439531856" d="M4.257,6.295L2.791,4.643L4.35,4.325L4.257,6.295Z" style="fill:rgb(200,231,233);"/>
        <path id="_439532192" d="M3.653,6.715C3.653,6.715 3.627,6.663 3.627,6.663L4.257,6.296L4.219,6.624C4.036,6.67 3.847,6.701 3.653,6.715Z" style="fill:rgb(212,237,238);"/>
        <path id="_439531976" d="M2.791,4.643L3.483,3.737L4.35,4.325L2.791,4.643Z" style="fill:rgb(192,228,229);"/>
        <path id="_439532168" d="M4.009,1.436L3.524,0.481L4.88,0.445C4.973,0.491 5.063,0.542 5.151,0.596L4.009,1.436L4.009,1.436Z" style="fill:rgb(138,205,208);"/>
        <path id="_439530824" d="M4.257,6.295L4.35,4.325L5.321,4.961L4.257,6.295Z" style="fill:rgb(202,233,234);"/>
        <path id="_439530728" d="M3.524,0.481L2.434,0.251C2.477,0.237 2.521,0.225 2.565,0.213L4.748,0.384C4.792,0.403 4.836,0.424 4.88,0.445L3.524,0.481Z" style="fill:rgb(129,202,204);"/>
        <path id="_439530776" d="M5.775,5.732L5.321,4.961L5.992,4.227L6.089,5.362C5.993,5.493 5.888,5.617 5.775,5.732L5.775,5.732Z" style="fill:rgb(201,232,233);"/>
        <path id="_439531424" d="M5.321,4.961L4.35,4.325L5.992,4.227L5.321,4.961Z" style="fill:rgb(195,229,231);"/>
        <path id="_439531112" d="M5.992,4.227L4.67,2.623L6.083,1.457C6.137,1.53 6.187,1.605 6.235,1.682L5.992,4.227Z" style="fill:rgb(170,219,221);"/>
        <path id="_439531376" d="M4.67,2.623L5.291,0.687C5.596,0.898 5.864,1.158 6.083,1.457L4.67,2.623L4.67,2.623Z" style="fill:rgb(151,212,213);"/>
        <path id="_439530920" d="M4.96,6.34L4.257,6.296L5.321,4.961L5.775,5.732C5.537,5.974 5.262,6.18 4.96,6.34L4.96,6.34Z" style="fill:rgb(210,236,236);"/>
        <path id="_439531280" d="M4.35,4.325L4.67,2.623L5.992,4.227L4.35,4.325Z" style="fill:rgb(185,226,227);"/>
        <path id="_439531088" d="M4.219,6.624C4.219,6.624 4.257,6.295 4.257,6.295L4.96,6.34C4.728,6.463 4.48,6.559 4.219,6.624Z" style="fill:rgb(218,239,240);"/>
        <path id="_439531328" d="M3.924,0.143L2.787,0.163C2.99,0.124 3.199,0.103 3.413,0.103C3.587,0.103 3.758,0.117 3.924,0.143L3.924,0.143Z" style="fill:rgb(121,199,201);"/>
        <path id="_439531160" d="M4.748,0.384L2.565,0.213C2.638,0.194 2.712,0.177 2.787,0.163L3.924,0.143C4.213,0.187 4.489,0.269 4.748,0.384L4.748,0.384Z" style="fill:rgb(129,202,204);"/>
        <path id="_439530200" d="M5.992,4.227L6.235,1.682C6.538,2.175 6.716,2.754 6.723,3.374L5.992,4.227Z" style="fill:rgb(167,218,220);"/>
        <path id="_439530128" d="M5.992,4.227L6.723,3.374C6.723,3.387 6.723,3.4 6.723,3.413C6.723,3.638 6.701,3.857 6.658,4.069L5.992,4.227Z" style="fill:rgb(173,220,221);"/>
        <path id="_439530248" d="M6.089,5.362L5.992,4.227L6.48,4.661C6.378,4.912 6.246,5.147 6.089,5.362L6.089,5.362Z" style="fill:rgb(198,231,232);"/>
        <path id="_439529984" d="M6.48,4.661L5.992,4.227L6.658,4.069C6.617,4.274 6.557,4.472 6.48,4.661Z" style="fill:rgb(187,226,228);"/>
    </g>
    <g id="Layer_x0020_1" transform="matrix(72,0,0,72,0,0)">
        <g id="_439514120">
            <path id="_439513856" d="M3.413,0C4.356,0 5.209,0.382 5.827,1C6.445,1.617 6.827,2.471 6.827,3.413C6.827,4.356 6.445,5.209 5.827,5.827C5.209,6.445 4.356,6.827 3.413,6.827C2.471,6.827 1.617,6.445 1,5.827C0.382,5.209 -0,4.356 -0,3.413C-0,2.471 0.382,1.617 1,1C1.617,0.382 2.471,0 3.413,0ZM5.681,1.146C5.1,0.566 4.299,0.207 3.413,0.207C2.528,0.207 1.726,0.566 1.146,1.146C0.566,1.726 0.207,2.528 0.207,3.413C0.207,4.299 0.566,5.1 1.146,5.681C1.726,6.261 2.528,6.62 3.413,6.62C4.299,6.62 5.1,6.261 5.681,5.681C6.261,5.1 6.62,4.299 6.62,3.413C6.62,2.528 6.261,1.726 5.681,1.146Z" style="fill:rgb(130,184,218);fill-rule:nonzero;"/>
        </g>
        <g transform="matrix(1,0,0,1,-0.0872309,0.0416667)">
            <g transform="matrix(0.0138889,0,0,0.0208906,0,-1.04911)">
                <rect x="100" y="103.406" width="94.081" height="26.594" style="fill:rgb(18,104,175);stroke:rgb(18,105,177);stroke-width:1.57px;"/>
            </g>
            <g transform="matrix(0.0138889,0,0,0.0208906,1.4711,-1.04911)">
                <rect x="100" y="103.406" width="94.081" height="26.594" style="fill:rgb(190,219,236);stroke:rgb(249,197,139);stroke-width:1.57px;"/>
            </g>
            <g transform="matrix(0.0138889,0,0,0.0208906,2.91667,-1.04911)">
                <rect x="100" y="103.406" width="94.081" height="26.594" style="fill:rgb(18,104,175);stroke:rgb(18,105,177);stroke-width:1.57px;"/>
            </g>
        </g>
        <g transform="matrix(1,0,0,1,-0.099998,0.0972222)">
            <g>
                <g transform="matrix(0.0138889,0,0,0.0126435,0.0127671,0.63703)">
                    <rect x="100" y="103.406" width="94.081" height="26.594" style="fill:rgb(18,104,175);stroke:rgb(18,105,177);stroke-width:2.09px;"/>
                </g>
                <g transform="matrix(0.0138889,0,0,0.0126435,1.48387,0.63703)">
                    <rect x="100" y="103.406" width="94.081" height="26.594" style="fill:rgb(190,219,236);stroke:rgb(18,105,177);stroke-width:2.09px;"/>
                </g>
                <g transform="matrix(0.0138889,0,0,0.0126435,2.92943,0.63703)">
                    <rect x="100" y="103.406" width="94.081" height="26.594" style="fill:rgb(18,104,175);stroke:rgb(18,105,177);stroke-width:2.09px;"/>
                </g>
            </g>
            <g transform="matrix(1,0,0,1,0,0.467839)">
                <g transform="matrix(0.0138889,0,0,0.0126435,0.0127671,0.63703)">
                    <rect x="100" y="103.406" width="94.081" height="26.594" style="fill:rgb(18,104,175);stroke:rgb(18,105,177);stroke-width:2.09px;"/>
                </g>
                <g transform="matrix(0.0138889,0,0,0.0126435,1.48387,0.63703)">
                    <rect x="100" y="103.406" width="94.081" height="26.594" style="fill:rgb(190,219,236);stroke:rgb(18,105,177);stroke-width:2.09px;"/>
                </g>
                <g transform="matrix(0.0138889,0,0,0.0126435,2.92943,0.63703)">
                    <rect x="100" y="103.406" width="94.081" height="26.594" style="fill:rgb(18,104,175);stroke:rgb(18,105,177);stroke-width:2.09px;"/>
                </g>
            </g>
            <g transform="matrix(1,0,0,1,0,0.935679)">
                <g transform="matrix(0.0138889,0,0,0.0126435,0.0127671,0.63703)">
                    <rect x="100" y="103.406" width="94.081" height="26.594" style="fill:rgb(18,104,175);stroke:rgb(18,105,177);stroke-width:2.09px;"/>
                </g>
                <g transform="matrix(0.0138889,0,0,0.0126435,1.48387,0.63703)">
                    <rect x="100" y="103.406" width="94.081" height="26.594" style="fill:rgb(190,219,236);stroke:rgb(18,105,177);stroke-width:2.09px;"/>
                </g>
                <g transform="matrix(0.0138889,0,0,0.0126435,2.92943,0.63703)">
                    <rect x="100" y="103.406" width="94.081" height="26.594" style="fill:rgb(18,104,175);stroke:rgb(18,105,177);stroke-width:2.09px;"/>
                </g>
            </g>
            <g transform="matrix(0.0138889,0,0,0.0126435,0.0127671,2.04055)">
                <rect x="100" y="103.406" width="94.081" height="26.594" style="fill:rgb(18,104,175);stroke:rgb(246,169,89);stroke-width:2.09px;"/>
            </g>
            <g transform="matrix(0.0138889,0,0,0.0126435,1.48387,2.04055)">
                <rect x="100" y="103.406" width="94.081" height="26.594" style="fill:rgb(190,219,236);stroke:rgb(249,197,139);stroke-width:2.09px;"/>
            </g>
            <g transform="matrix(0.0138889,0,0,0.0126435,2.92943,2.04055)">
                <rect x="100" y="103.406" width="94.081" height="26.594" style="fill:rgb(18,104,175);stroke:rgb(246,169,89);stroke-width:2.09px;"/>
            </g>
            <g transform="matrix(1,0,0,1,0,1.87136)">
                <g transform="matrix(0.0138889,0,0,0.0126435,0.0127671,0.63703)">
                    <rect x="100" y="103.406" width="94.081" height="26.594" style="fill:rgb(18,104,175);stroke:rgb(18,105,177);stroke-width:2.09px;"/>
                </g>
                <g transform="matrix(0.0138889,0,0,0.0126435,1.48387,0.63703)">
                    <rect x="100" y="103.406" width="94.081" height="26.594" style="fill:rgb(190,219,236);stroke:rgb(18,105,177);stroke-width:2.09px;"/>
                </g>
                <g transform="matrix(0.0138889,0,0,0.0126435,2.92943,0.63703)">
                    <rect x="100" y="103.406" width="94.081" height="26.594" style="fill:rgb(18,104,175);stroke:rgb(18,105,177);stroke-width:2.09px;"/>
                </g>
            </g>
            <g transform="matrix(1,0,0,1,0,2.3392)">
                <g transform="matrix(0.0138889,0,0,0.0126435,0.0127671,0.63703)">
                    <rect x="100" y="103.406" width="94.081" height="26.594" style="fill:rgb(18,104,175);stroke:rgb(18,105,177);stroke-width:2.09px;"/>
                </g>
                <g transform="matrix(0.0138889,0,0,0.0126435,1.48387,0.63703)">
                    <rect x="100" y="103.406" width="94.081" height="26.594" style="fill:rgb(190,219,236);stroke:rgb(18,105,177);stroke-width:2.09px;"/>
                </g>
                <g transform="matrix(0.0138889,0,0,0.0126435,2.92943,0.63703)">
                    <rect x="100" y="103.406" width="94.081" height="26.594" style="fill:rgb(18,104,175);stroke:rgb(18,105,177);stroke-width:2.09px;"/>
                </g>
            </g>
            <g transform="matrix(1,0,0,1,0,2.80704)">
                <g transform="matrix(0.0138889,0,0,0.0126435,0.0127671,0.63703)">
                    <rect x="100" y="103.406" width="94.081" height="26.594" style="fill:rgb(18,104,175);stroke:rgb(18,105,177);stroke-width:2.09px;"/>
                </g>
                <g transform="matrix(0.0138889,0,0,0.0126435,1.48387,0.63703)">
                    <rect x="100" y="103.406" width="94.081" height="26.594" style="fill:rgb(190,219,236);stroke:rgb(18,105,177);stroke-width:2.09px;"/>
                </g>
                <g transform="matrix(0.0138889,0,0,0.0126435,2.92943,0.63703)">
                    <rect x="100" y="103.406" width="94.081" height="26.594" style="fill:rgb(18,104,175);stroke:rgb(18,105,177);stroke-width:2.09px;"/>
                </g>
            </g>
            <g transform="matrix(1,0,0,1,0,3.27488)">
                <g transform="matrix(0.0138889,0,0,0.0126435,0.0127671,0.63703)">
                    <rect x="100" y="103.406" width="94.081" height="26.594" style="fill:rgb(18,104,175);stroke:rgb(18,105,177);stroke-width:2.09px;"/>
                </g>
                <g transform="matrix(0.0138889,0,0,0.0126435,1.48387,0.63703)">
                    <rect x="100" y="103.406" width="94.081" height="26.594" style="fill:rgb(190,219,236);stroke:rgb(18,105,177);stroke-width:2.09px;"/>
                </g>
                <g transform="matrix(0.0138889,0,0,0.0126435,2.92943,0.63703)">
                    <rect x="100" y="103.406" width="94.081" height="26.594" style="fill:rgb(18,104,175);stroke:rgb(18,105,177);stroke-width:2.09px;"/>
                </g>
            </g>
        </g>
    </g>
</svg>
