<?xml version="1.0" encoding="UTF-8"?>
<!DOCTYPE svg PUBLIC "-//W3C//DTD SVG 1.1//EN" "http://www.w3.org/Graphics/SVG/1.1/DTD/svg11.dtd">
<!-- Creator: CorelDRAW -->
<svg xmlns="http://www.w3.org/2000/svg" xml:space="preserve" width="6.82666in" height="6.82666in" style="shape-rendering:geometricPrecision; text-rendering:geometricPrecision; image-rendering:optimizeQuality; fill-rule:evenodd; clip-rule:evenodd"
viewBox="0 0 6.82666 6.82666"
 xmlns:xlink="http://www.w3.org/1999/xlink">
 <defs>
  <style type="text/css">
   <![CDATA[
    .fil35 {fill:#5D7056}
    .fil31 {fill:#8ED16F}
    .fil1 {fill:#94D477}
    .fil7 {fill:#97D47C}
    .fil16 {fill:#9CD681}
    .fil24 {fill:#A1D988}
    .fil8 {fill:#A3D989}
    .fil17 {fill:#A7DB8F}
    .fil15 {fill:#A9DC92}
    .fil0 {fill:#AAD496}
    .fil9 {fill:#ABDC94}
    .fil3 {fill:#B0DE9B}
    .fil13 {fill:#B3E09E}
    .fil32 {fill:#B5E1A0}
    .fil6 {fill:#B5E1A1}
    .fil2 {fill:#B6E1A3}
    .fil33 {fill:#B8E3A6}
    .fil21 {fill:#BAE3A7}
    .fil14 {fill:#BDE4AC}
    .fil11 {fill:#BEE4AD}
    .fil10 {fill:#C4E6B4}
    .fil19 {fill:#C5E7B5}
    .fil12 {fill:#C5E8B6}
    .fil5 {fill:#C7E8B8}
    .fil18 {fill:#C9E9BB}
    .fil29 {fill:#CCEABE}
    .fil4 {fill:#CCEBBF}
    .fil20 {fill:#CFECC2}
    .fil22 {fill:#D0ECC4}
    .fil28 {fill:#D1ECC5}
    .fil23 {fill:#D2ECC5}
    .fil26 {fill:#D4EDC9}
    .fil25 {fill:#D9EFCE}
    .fil27 {fill:#DBF0D1}
    .fil30 {fill:#DFF3D7}
    .fil34 {fill:#5D7056;fill-rule:nonzero}
   ]]>
  </style>
 </defs>
 <g id="Layer_x0020_1">
  <metadata id="CorelCorpID_0Corel-Layer"/>
  <g id="_439523768">
   <path id="_439527656" class="fil0" d="M3.41333 0.103323c1.82806,0 3.31001,1.48194 3.31001,3.31001 0,1.82806 -1.48195,3.31001 -3.31001,3.31001 -1.82806,0 -3.31001,-1.48195 -3.31001,-3.31001 0,-1.82806 1.48194,-3.31001 3.31001,-3.31001z"/>
   <g>
    <path id="_439527632" class="fil1" d="M0.84815 1.34934l-0.00884252 -0.0168189c0.00753937,-0.00931496 0.0149882,-0.0187087 0.0226299,-0.0279409l-0.0137874 0.0447598z"/>
    <path id="_439528352" class="fil2" d="M0.103453 3.42366l0.0734567 0.129008 -0.056126 0.202343c-0.0111732,-0.108965 -0.0169882,-0.219512 -0.0173307,-0.33135z"/>
    <path id="_439528328" class="fil3" d="M0.176909 3.55267l-0.0734567 -0.129008c-1.1811e-005,-0.00345276 -0.000129921,-0.00687402 -0.000129921,-0.0103268 0,-0.0520512 0.00135433,-0.103776 0.00373228,-0.15524l0.0698543 0.294575z"/>
    <path id="_439527680" class="fil4" d="M1.18749 5.86321l0.776169 -0.14402 -0.0895354 0.62498c-0.249311,-0.131209 -0.479969,-0.293087 -0.686634,-0.480961z"/>
    <path id="_439528280" class="fil5" d="M0.877673 5.54068l0.5695 -2.23289 0.516488 2.41141 -0.776169 0.14402c-0.11039,-0.100366 -0.213819,-0.208224 -0.309819,-0.322531z"/>
    <path id="_439528208" class="fil6" d="M1.44717 3.30779l-1.24756 -0.689248c0.019374,-0.0785906 0.0415472,-0.156067 0.0664213,-0.232331l1.25347 -0.278012 -0.0723386 1.19959z"/>
    <path id="_439527896" class="fil7" d="M0.839307 1.33252l0.00884252 0.0168189 -0.0253898 0.00372441c0.00548031,-0.00687795 0.0110157,-0.0137087 0.0165472,-0.0205433z"/>
    <path id="_439528256" class="fil8" d="M0.82276 1.35307l0.0253898 -0.00372441 -0.185134 0.22185c0.0503071,-0.0749488 0.103646,-0.147681 0.159744,-0.218126z"/>
    <path id="_439528088" class="fil9" d="M0.663016 1.57119l0.185134 -0.22185 0.671362 0.758854 -1.25347 0.278012c0.0951063,-0.291531 0.229413,-0.565339 0.396976,-0.815016z"/>
    <path id="_439528160" class="fil2" d="M0.176909 3.55267l0 0 -0.0698543 -0.294575c0.0101339,-0.219457 0.0417205,-0.433287 0.092563,-0.639551l1.24756 0.689248 -1.27026 0.244878z"/>
    <path id="_439527344" class="fil10" d="M0.206878 4.23787l1.2403 -0.930087 -0.5695 2.23289c-0.313378,-0.373138 -0.546059,-0.816303 -0.670795,-1.30281z"/>
    <path id="_439527200" class="fil11" d="M0.120783 3.75501l0.056126 -0.202343 1.27026 -0.244878 -1.2403 0.930087c-0.0401969,-0.156768 -0.069189,-0.318028 -0.0860945,-0.482866z"/>
    <polygon id="_439527128" class="fil12" points="2.78981,4.64194 1.44717,3.30779 2.33531,3.05072 "/>
    <polygon id="_439526960" class="fil13" points="2.33531,3.05072 1.51951,2.1082 2.08763,1.12896 "/>
    <polygon id="_439526840" class="fil14" points="1.44717,3.30779 1.51951,2.1082 2.33531,3.05072 "/>
    <path id="_439526936" class="fil15" d="M4.66962 2.62229l-0.661004 -1.18728 1.14086 -0.840126c0.0476457,0.0294134 0.0944646,0.0600236 0.140469,0.0917402l-0.620323 1.93567z"/>
    <path id="_439526888" class="fil16" d="M0.84815 1.34934l0.0137874 -0.0447598c0.166339,-0.201031 0.356004,-0.382031 0.564807,-0.538957l0.660882 0.363331 -1.23948 0.220386z"/>
    <polygon id="_439527176" class="fil17" points="1.51951,2.1082 1.51951,2.1082 0.84815,1.34934 2.08763,1.12896 "/>
    <path id="_439527416" class="fil7" d="M2.08763 1.12896l-0.660882 -0.363331c0.201016,-0.151067 0.419858,-0.279622 0.652697,-0.382287l0.00818504 0.745618z"/>
    <polygon id="_439527320" class="fil18" points="1.96366,5.71919 1.96366,5.71919 1.44717,3.30779 2.78981,4.64194 "/>
    <polygon id="_439526432" class="fil19" points="4.34948,4.3237 3.48189,3.73626 4.66962,2.62229 "/>
    <path id="_439526312" class="fil20" d="M1.87413 6.34417l0.0895354 -0.62498 0.602197 0.894457c-0.242602,-0.0641299 -0.474299,-0.155047 -0.691732,-0.269476z"/>
    <polygon id="_439526576" class="fil21" points="3.48189,3.73626 4.00862,1.435 4.66962,2.62229 "/>
    <path id="_439526264" class="fil7" d="M2.08763 1.12896l0 0 -0.00818504 -0.745618c0.115524,-0.0509331 0.234445,-0.095563 0.356433,-0.13324l1.08729 0.230035 -1.43554 0.648823z"/>
    <polygon id="_439526768" class="fil5" points="2.78981,4.64194 2.78981,4.64194 2.33531,3.05072 3.48189,3.73626 "/>
    <polygon id="_439526168" class="fil22" points="3.62645,6.66159 1.96366,5.71919 2.78981,4.64194 "/>
    <path id="_439526288" class="fil23" d="M2.56586 6.61365l-0.602197 -0.894457 1.66279 0.942402 -0.117575 0.0602756c-0.031748,0.000901575 -0.0635827,0.0014685 -0.0955472,0.0014685 -0.292965,0 -0.576965,-0.0382402 -0.847472,-0.109689z"/>
    <polygon id="_439526528" class="fil14" points="3.48189,3.73626 3.48189,3.73626 2.33531,3.05072 4.00862,1.435 "/>
    <polygon id="_439526720" class="fil3" points="2.33531,3.05072 2.33531,3.05072 2.08763,1.12896 4.00862,1.435 "/>
    <polygon id="_439526672" class="fil24" points="4.00862,1.435 2.08763,1.12896 3.52316,0.480134 "/>
    <path id="_439526360" class="fil25" d="M3.50888 6.72187l0.117575 -0.0602756 0.0260669 0.0530709c-0.0476142,0.00339764 -0.0954921,0.00583858 -0.143642,0.00720472z"/>
    <polygon id="_439526048" class="fil26" points="3.62645,6.66159 3.62645,6.66159 2.78981,4.64194 4.25655,6.29437 "/>
    <polygon id="_439525376" class="fil22" points="4.25655,6.29437 4.25655,6.29437 2.78981,4.64194 4.34948,4.3237 "/>
    <path id="_439525736" class="fil27" d="M3.65252 6.71467l-0.0260669 -0.0530709 0.630094 -0.367224 -0.0383661 0.330217c-0.183008,0.0457205 -0.372012,0.076248 -0.565661,0.0900787z"/>
    <polygon id="_439525712" class="fil18" points="2.78981,4.64194 3.48189,3.73626 4.34948,4.3237 "/>
    <path id="_439525832" class="fil16" d="M4.00862 1.435l0 0 -0.485457 -0.95487 1.35441 -0.0358898c0.0931969,0.0460512 0.183917,0.0963228 0.271902,0.150634l-1.14086 0.840126z"/>
    <polygon id="_439525808" class="fil23" points="4.25655,6.29437 4.34948,4.3237 5.32031,4.96022 "/>
    <path id="_439525688" class="fil1" d="M3.52316 0.480134l0 0 -1.08729 -0.230035c0.0435984,-0.0134567 0.087622,-0.0259409 0.131972,-0.037626l2.17686 0.169772c0.0448189,0.0197165 0.0891142,0.0403819 0.132866,0.062l-1.35441 0.0358898z"/>
    <path id="_439525880" class="fil28" d="M5.77472 5.73249l-0.454413 -0.772272 0.67124 -0.734358 0.0965157 1.13731c-0.0954449,0.130685 -0.200193,0.254126 -0.313343,0.369323z"/>
    <polygon id="_439525496" class="fil29" points="5.32031,4.96022 5.32031,4.96022 4.34948,4.3237 5.99155,4.22586 "/>
    <path id="_439525592" class="fil2" d="M5.99155 4.22586l-1.32193 -1.60357 1.41272 -1.16665c0.053563,0.0729016 0.104232,0.148051 0.151799,0.225327l-0.242591 2.54489z"/>
    <path id="_439524632" class="fil17" d="M4.66962 2.62229l0.620323 -1.93567c0.305122,0.210398 0.573138,0.470661 0.792398,0.769024l-1.41272 1.16665z"/>
    <path id="_439524560" class="fil25" d="M4.96162 6.33938l-0.705071 -0.0450079 1.06376 -1.33415 0.454413 0.772272c-0.237303,0.241559 -0.511323,0.44687 -0.813106,0.60689z"/>
    <polygon id="_439524968" class="fil10" points="4.34948,4.3237 4.66962,2.62229 5.99155,4.22586 "/>
    <path id="_439525232" class="fil30" d="M4.21818 6.62459l0.0383661 -0.330217 0.705071 0.0450079c-0.232736,0.123394 -0.481902,0.219866 -0.743437,0.285209z"/>
    <path id="_439524944" class="fil31" d="M3.91741 0.141461l-1.12356 0.0199921c0.200701,-0.0380039 0.407724,-0.0581299 0.61948,-0.0581299 0.171378,0 0.339717,0.0130236 0.504075,0.0381378z"/>
    <path id="_439524536" class="fil1" d="M4.74471 0.382244l-2.17686 -0.169772c0.0743386,-0.0195827 0.149724,-0.0365591 0.226004,-0.0510197l1.12356 -0.0199921c0.289854,0.0443583 0.567295,0.126409 0.827303,0.240783z"/>
    <path id="_439524776" class="fil32" d="M5.99155 4.22586l0.242591 -2.54489c0.303323,0.492846 0.480976,1.07119 0.488665,1.69052l-0.731256 0.854366z"/>
    <path id="_439525064" class="fil33" d="M5.99155 4.22586l0.731256 -0.854366c0.000173228,0.0139488 0.000531496,0.0278504 0.000531496,0.0418386 0,0.224063 -0.0223937,0.442878 -0.0648268,0.654449l-0.666961 0.158079z"/>
    <path id="_439524896" class="fil20" d="M6.08807 5.36317l-0.0965157 -1.13731 0.488394 0.434945c-0.102236,0.250945 -0.234283,0.486547 -0.391878,0.702362z"/>
    <path id="_439524848" class="fil19" d="M6.47994 4.6608l-0.488394 -0.434945 0.666961 -0.158079c-0.0412087,0.205161 -0.10137,0.403457 -0.178567,0.593024z"/>
   </g>
   <path id="_439524488" class="fil34" d="M3.41333 0c0.942551,0 1.79589,0.382055 2.41358,0.999752 0.617697,0.617693 0.999752,1.47103 0.999752,2.41358 0,0.942551 -0.382055,1.79589 -0.999752,2.41358 -0.617693,0.617697 -1.47103,0.999752 -2.41358,0.999752 -0.942551,0 -1.79589,-0.382055 -2.41358,-0.999752 -0.617697,-0.617693 -0.999752,-1.47103 -0.999752,-2.41358 0,-0.942551 0.382055,-1.79589 0.999752,-2.41358 0.617693,-0.617697 1.47103,-0.999752 2.41358,-0.999752zm2.26731 1.14602c-0.580248,-0.580248 -1.38187,-0.939146 -2.26731,-0.939146 -0.885445,0 -1.68707,0.358898 -2.26731,0.939146 -0.580248,0.580248 -0.939146,1.38187 -0.939146,2.26731 0,0.885445 0.358898,1.68707 0.939146,2.26731 0.580248,0.580248 1.38187,0.939146 2.26731,0.939146 0.885445,0 1.68707,-0.358898 2.26731,-0.939146 0.580248,-0.580248 0.939146,-1.38187 0.939146,-2.26731 0,-0.885445 -0.358898,-1.68707 -0.939146,-2.26731z"/>
  </g>
  <g id="_439524416">
   <path id="_439524464" class="fil35" d="M2.86929 4.30122c0.00759055,-0.00553543 0.0180906,-0.0250512 0.0213976,-0.0318661 0.0177205,-0.0365551 0.0290669,-0.0817756 0.0375354,-0.121327 0.015189,-0.0709331 0.0244567,-0.144354 0.0316654,-0.216488 0.0106417,-0.106437 0.0165787,-0.213685 0.0205394,-0.320559 0.00571654,-0.154386 0.0249882,-0.488571 0.248724,-0.480283 0.0699213,0.00259055 0.129555,0.0442087 0.178689,0.0905945 0.0537559,0.050752 0.101291,0.111843 0.147311,0.16965 0.0358701,0.0450591 0.165697,0.213315 0.223142,0.229315 0.0159252,-0.0112717 0.0377283,-0.0618071 0.0434528,-0.0764016 0.033752,-0.0861024 0.0544882,-0.188992 0.071126,-0.279713 0.0340906,-0.185858 0.111768,-0.491831 0.337213,-0.527031 0.0327559,-0.00511417 0.0658661,-0.00392913 0.0984173,0.00203937 0.182051,0.0333858 0.343752,0.240965 0.454283,0.380028 0.00940945,0.0118386 0.0379764,0.0468701 0.0587283,0.0649291 0.0117087,-0.0287402 0.0237795,-0.0822323 0.0275197,-0.0988071 0.0205827,-0.0910984 0.0383583,-0.182295 0.0607008,-0.273126 0.0468858,-0.190654 0.102185,-0.43365 0.251012,-0.571972l0.0444016 -0.0412717 0.188181 0.20224 -0.0444528 0.0413189c-0.0911929,0.0847559 -0.141665,0.316736 -0.170913,0.435661 -0.0493386,0.200598 -0.108512,0.473118 -0.295409,0.591484 -0.0248268,0.0157244 -0.0524961,0.0246575 -0.0820276,0.0242441 -0.0552244,-0.000775591 -0.101602,-0.0334803 -0.139937,-0.070252 -0.0414055,-0.0397283 -0.0783819,-0.0875945 -0.114083,-0.13252 -0.054437,-0.0684803 -0.206583,-0.265496 -0.287787,-0.280386 -0.000574803,-0.000106299 -0.00118504,-0.000185039 -0.00177559,-0.000173228 -0.0120394,0.000216535 -0.033811,0.0376535 -0.038185,0.0460039 -0.0377441,0.0720748 -0.059752,0.177965 -0.074315,0.257374 -0.0385591,0.21024 -0.134008,0.633429 -0.432681,0.578657 -0.159882,-0.0293189 -0.295783,-0.207736 -0.392831,-0.329638 -0.024878,-0.0312441 -0.0497244,-0.0627323 -0.075374,-0.0934016 -0.00335433,0.050374 -0.0053622,0.101028 -0.00722835,0.15139 -0.00509843,0.137654 -0.0148898,0.276894 -0.0356378,0.413146 -0.0145118,0.0952992 -0.0349094,0.193969 -0.0685039,0.284531 -0.0420394,0.113323 -0.114799,0.236083 -0.245299,0.256157 -0.0149882,0.00230315 -0.0301535,0.00311417 -0.0453031,0.00255512 -0.245811,-0.0091063 -0.482866,-0.433724 -0.609811,-0.690394 -0.0207244,0.0541575 -0.0368937,0.113575 -0.050063,0.164776 -0.0240276,0.0934449 -0.0433858,0.188524 -0.0605984,0.283441 -0.0266181,0.146736 -0.0481654,0.294752 -0.066689,0.442724 -0.00877165,0.0700945 -0.0181378,0.14213 -0.0240512,0.212535l-0.00394882 0.0599016 -0.275748 -0.0172992 0.004 -0.0607126c0.00140551,-0.0212992 0.00431496,-0.0435787 0.00662205,-0.0648307 0.00567717,-0.0523583 0.0118346,-0.104669 0.0183661,-0.156925 0.0195906,-0.156685 0.0424528,-0.313417 0.0707362,-0.468772 0.0182008,-0.0999803 0.038689,-0.200059 0.064,-0.298492 0.0250512,-0.0974213 0.0575079,-0.208201 0.10548,-0.296866 0.0572087,-0.105756 0.148862,-0.190835 0.276429,-0.149772 0.034937,0.011248 0.0653268,0.0314606 0.091315,0.0571535 0.0207835,0.0205394 0.0336575,0.0499331 0.0460472,0.0760433 0.0554094,0.116724 0.113024,0.232453 0.178193,0.344098 0.0416654,0.0713701 0.0887559,0.146575 0.142409,0.209539 0.0162441,0.019063 0.0664882,0.073937 0.0950157,0.077748z"/>
   <polygon id="_439524152" class="fil35" points="1.71104,5.10298 5.38805,5.10298 5.38805,5.40069 1.41333,5.40069 1.41333,1.42597 1.71104,1.42597 "/>
  </g>
 </g>
</svg>
