<?xml version="1.0" encoding="UTF-8"?>
<!DOCTYPE svg PUBLIC "-//W3C//DTD SVG 1.1//EN" "http://www.w3.org/Graphics/SVG/1.1/DTD/svg11.dtd">
<!-- Creator: CorelDRAW -->
<svg xmlns="http://www.w3.org/2000/svg" xml:space="preserve" width="6.82666in" height="6.82666in" style="shape-rendering:geometricPrecision; text-rendering:geometricPrecision; image-rendering:optimizeQuality; fill-rule:evenodd; clip-rule:evenodd"
viewBox="0 0 6.82666 6.82666"
 xmlns:xlink="http://www.w3.org/1999/xlink">
 <defs>
  <style type="text/css">
   <![CDATA[
    .fil34 {fill:#556D6E}
    .fil30 {fill:#79C7C9}
    .fil1 {fill:#81CACC}
    .fil7 {fill:#86CCCD}
    .fil15 {fill:#8ACDD0}
    .fil23 {fill:#90D1D3}
    .fil8 {fill:#92D1D3}
    .fil16 {fill:#97D4D5}
    .fil14 {fill:#9AD4D6}
    .fil9 {fill:#9BD4D7}
    .fil3 {fill:#A2D7DA}
    .fil0 {fill:#A5DADB}
    .fil31 {fill:#A7DADC}
    .fil6 {fill:#A8DBDC}
    .fil2 {fill:#AADBDD}
    .fil32 {fill:#ADDCDD}
    .fil20 {fill:#ADDCDE}
    .fil13 {fill:#B2DEE0}
    .fil11 {fill:#B3DFE0}
    .fil10 {fill:#B9E2E3}
    .fil18 {fill:#BBE2E4}
    .fil12 {fill:#BCE3E4}
    .fil5 {fill:#BDE4E4}
    .fil17 {fill:#C0E4E5}
    .fil28 {fill:#C3E5E7}
    .fil4 {fill:#C4E6E7}
    .fil19 {fill:#C6E7E8}
    .fil21 {fill:#C8E7E9}
    .fil27 {fill:#C9E8E9}
    .fil22 {fill:#CAE9EA}
    .fil25 {fill:#CCEAEB}
    .fil24 {fill:#D2ECEC}
    .fil26 {fill:#D4EDEE}
    .fil29 {fill:#DAEFF0}
    .fil33 {fill:#556D6E;fill-rule:nonzero}
   ]]>
  </style>
 </defs>
 <g id="Layer_x0020_1">
  <metadata id="CorelCorpID_0Corel-Layer"/>
  <g id="_441818576">
   <path id="_441822176" class="fil0" d="M3.41333 0.103323c1.82806,0 3.31001,1.48194 3.31001,3.31001 0,1.82806 -1.48195,3.31001 -3.31001,3.31001 -1.82806,0 -3.31001,-1.48195 -3.31001,-3.31001 0,-1.82806 1.48194,-3.31001 3.31001,-3.31001z"/>
   <g>
    <path id="_441822248" class="fil1" d="M0.848996 1.35054l-0.00955512 -0.0181772c0.00812205,-0.0100315 0.0161811,-0.0201142 0.0244173,-0.0300472l-0.0148622 0.0482244z"/>
    <path id="_441821792" class="fil2" d="M0.103449 3.42324l0.0743543 0.130587 -0.0566614 0.204283c-0.0113976,-0.11011 -0.0173622,-0.221823 -0.0176929,-0.33487z"/>
    <path id="_441821768" class="fil3" d="M0.177803 3.55383l-0.0743543 -0.130587c-1.1811e-005,-0.00331102 -0.000125984,-0.00659843 -0.000125984,-0.00991339 0,-0.0528071 0.00137402,-0.105287 0.0038189,-0.157488l0.0706614 0.297988z"/>
    <path id="_441821696" class="fil4" d="M1.1887 5.86429l0.775917 -0.143961 -0.0894724 0.624378c-0.24922,-0.131047 -0.479807,-0.292748 -0.686445,-0.480417z"/>
    <path id="_441821984" class="fil5" d="M0.878551 5.54172l0.5695 -2.23277 0.516563 2.41138 -0.775917 0.143961c-0.110504,-0.100374 -0.214043,-0.20824 -0.310146,-0.322571z"/>
    <path id="_441821960" class="fil6" d="M1.44805 3.30895l-1.24858 -0.689815c0.0192835,-0.0782835 0.0413425,-0.155461 0.0660827,-0.231445l1.25487 -0.278315 -0.072378 1.19957z"/>
    <path id="_441822032" class="fil7" d="M0.839441 1.33236l0.00955512 0.0181772 -0.027437 0.00402362c0.00591732,-0.00743701 0.0119016,-0.014815 0.0178819,-0.0222008z"/>
    <path id="_441821744" class="fil8" d="M0.821559 1.35456l0.027437 -0.00402362 -0.19289 0.231154c0.0519961,-0.0781063 0.107193,-0.153882 0.165453,-0.22713z"/>
    <path id="_441822416" class="fil9" d="M0.656106 1.58169l0.19289 -0.231154 0.671433 0.758843 -1.25487 0.278315c0.0938268,-0.288016 0.225945,-0.558717 0.390551,-0.806004z"/>
    <path id="_441821600" class="fil2" d="M0.177803 3.55383l0 0 -0.0706614 -0.297988c0.0102362,-0.218461 0.041748,-0.431323 0.0923307,-0.636705l1.24858 0.689815 -1.27025 0.244878z"/>
    <path id="_441821552" class="fil10" d="M0.207256 4.23942l1.2408 -0.930469 -0.5695 2.23277c-0.313488,-0.372961 -0.546346,-0.815949 -0.671295,-1.3023z"/>
    <path id="_441821312" class="fil11" d="M0.121142 3.75811l0.0566614 -0.204283 1.27025 -0.244878 -1.2408 0.930469c-0.0401457,-0.156264 -0.0691102,-0.317012 -0.0861142,-0.481307z"/>
    <polygon id="_441821504" class="fil12" points="2.79068,4.64309 1.44805,3.30895 2.33618,3.05189 "/>
    <polygon id="_441821360" class="fil0" points="2.33618,3.05189 1.52043,2.10938 2.08858,1.13015 "/>
    <polygon id="_441821048" class="fil13" points="1.44805,3.30895 1.52043,2.10938 2.33618,3.05189 "/>
    <path id="_441821264" class="fil14" d="M4.67046 2.62346l-0.661 -1.18727 1.14137 -0.840472c0.0475315,0.029374 0.0942441,0.059937 0.140138,0.0916063l-0.620504 1.93613z"/>
    <path id="_441821432" class="fil15" d="M0.848996 1.35054l0.0148622 -0.0482244c0.165748,-0.199949 0.354567,-0.380055 0.562374,-0.536295l0.662346 0.364134 -1.23958 0.220386z"/>
    <polygon id="_441821648" class="fil16" points="1.52043,2.10938 1.52043,2.10938 0.848996,1.35054 2.08858,1.13015 "/>
    <path id="_441821216" class="fil7" d="M2.08858 1.13015l-0.662346 -0.364134c0.201398,-0.151413 0.420697,-0.280228 0.654047,-0.383043l0.00829921 0.747177z"/>
    <polygon id="_441820616" class="fil17" points="1.96461,5.72033 1.96461,5.72033 1.44805,3.30895 2.79068,4.64309 "/>
    <polygon id="_441820352" class="fil18" points="4.35036,4.32486 3.48275,3.73742 4.67046,2.62346 "/>
    <path id="_441820328" class="fil19" d="M1.87514 6.34471l0.0894724 -0.624378 0.601437 0.89337c-0.242295,-0.0640354 -0.473713,-0.154787 -0.690909,-0.268992z"/>
    <polygon id="_441820496" class="fil20" points="3.48275,3.73742 4.00946,1.4362 4.67046,2.62346 "/>
    <path id="_441820304" class="fil7" d="M2.08858 1.13015l0 0 -0.00829921 -0.747177c0.114626,-0.0504961 0.232583,-0.0948189 0.353571,-0.132272l1.09017 0.230638 -1.43544 0.648811z"/>
    <polygon id="_441820832" class="fil5" points="2.79068,4.64309 2.79068,4.64309 2.33618,3.05189 3.48275,3.73742 "/>
    <polygon id="_441820280" class="fil21" points="3.6273,6.66272 1.96461,5.72033 2.79068,4.64309 "/>
    <path id="_441820544" class="fil22" d="M2.56605 6.6137l-0.601437 -0.89337 1.66269 0.94239 -0.115126 0.0590276c-0.0328425,0.000964567 -0.0657717,0.00159055 -0.0988465,0.00159055 -0.292894,0 -0.576827,-0.0382244 -0.84728,-0.109638z"/>
    <polygon id="_441820856" class="fil13" points="3.48275,3.73742 3.48275,3.73742 2.33618,3.05189 4.00946,1.4362 "/>
    <polygon id="_441820736" class="fil3" points="2.33618,3.05189 2.33618,3.05189 2.08858,1.13015 4.00946,1.4362 "/>
    <polygon id="_441820760" class="fil23" points="4.00946,1.4362 2.08858,1.13015 3.52402,0.481339 "/>
    <path id="_441819968" class="fil24" d="M3.51218 6.72175l0.115126 -0.0590276 0.0255039 0.0519291c-0.046622,0.00333071 -0.0934961,0.00571654 -0.14063,0.00709843z"/>
    <polygon id="_441819392" class="fil25" points="3.6273,6.66272 3.6273,6.66272 2.79068,4.64309 4.25735,6.2955 "/>
    <polygon id="_441819656" class="fil21" points="4.25735,6.2955 4.25735,6.2955 2.79068,4.64309 4.35036,4.32486 "/>
    <path id="_441820136" class="fil26" d="M3.65281 6.71465l-0.0255039 -0.0519291 0.630047 -0.367217 -0.0382047 0.32885c-0.18322,0.0458268 -0.372453,0.0764291 -0.566339,0.0902953z"/>
    <polygon id="_441820088" class="fil17" points="2.79068,4.64309 3.48275,3.73742 4.35036,4.32486 "/>
    <path id="_441819464" class="fil15" d="M4.00946 1.4362l0 0 -0.485449 -0.954858 1.3559 -0.0359291c0.0928543,0.0459724 0.183244,0.0961417 0.270913,0.150315l-1.14137 0.840472z"/>
    <polygon id="_441819800" class="fil22" points="4.25735,6.2955 4.35036,4.32486 5.3211,4.96137 "/>
    <path id="_441819584" class="fil1" d="M3.52402 0.481339l0 0 -1.09017 -0.230638c0.043185,-0.0133583 0.0867992,-0.0257165 0.130717,-0.0373386l2.18331 0.170264c0.0445433,0.0196496 0.0885551,0.0402559 0.132043,0.0617835l-1.3559 0.0359291z"/>
    <path id="_441819536" class="fil27" d="M5.77484 5.73237l-0.453736 -0.771004 0.671315 -0.73435 0.0963543 1.13518c-0.0956063,0.131 -0.200547,0.254724 -0.313933,0.370173z"/>
    <polygon id="_441819488" class="fil28" points="5.3211,4.96137 5.3211,4.96137 4.35036,4.32486 5.99242,4.22702 "/>
    <path id="_441818936" class="fil2" d="M5.99242 4.22702l-1.32195 -1.60355 1.41273 -1.16665c0.0535512,0.0729528 0.104217,0.148142 0.151768,0.225465l-0.242543 2.54474z"/>
    <path id="_441818840" class="fil16" d="M4.67046 2.62346l0.620504 -1.93613c0.305094,0.210547 0.573051,0.470965 0.792224,0.76948l-1.41273 1.16665z"/>
    <path id="_441818792" class="fil24" d="M4.9598 6.34034l-0.702445 -0.0448386 1.06375 -1.33414 0.453736 0.771004c-0.237807,0.242094 -0.512496,0.447787 -0.815043,0.607972z"/>
    <polygon id="_441819176" class="fil10" points="4.35036,4.32486 4.67046,2.62346 5.99242,4.22702 "/>
    <path id="_441819128" class="fil29" d="M4.21915 6.62435l0.0382047 -0.32885 0.702445 0.0448386c-0.231933,0.122783 -0.480146,0.218843 -0.74065,0.284012z"/>
    <path id="_441819368" class="fil30" d="M3.92407 0.142563l-1.13726 0.0202362c0.202898,-0.038874 0.412287,-0.0594764 0.62652,-0.0594764 0.173705,0 0.344256,0.0134567 0.510736,0.0392402z"/>
    <path id="_441819056" class="fil1" d="M4.74787 0.383626l-2.18331 -0.170264c0.0731181,-0.0193425 0.147244,-0.0361732 0.222244,-0.050563l1.13726 -0.0202362c0.288614,0.0447717 0.564886,0.126846 0.823807,0.241063z"/>
    <path id="_441819320" class="fil31" d="M5.99242 4.22702l0.242543 -2.54474c0.303177,0.493126 0.480571,1.07176 0.487874,1.69135l-0.730417 0.85339z"/>
    <path id="_441818672" class="fil32" d="M5.99242 4.22702l0.730417 -0.85339c0.000153543,0.0132362 0.000503937,0.0264291 0.000503937,0.0397047 0,0.224563 -0.0224803,0.443858 -0.0651024,0.65587l-0.665819 0.157815z"/>
    <path id="_441819200" class="fil19" d="M6.08877 5.3622l-0.0963543 -1.13518 0.487413 0.434063c-0.102067,0.250465 -0.233831,0.485642 -0.391059,0.701118z"/>
    <path id="_441818024" class="fil18" d="M6.47983 4.66108l-0.487413 -0.434063 0.665819 -0.157815c-0.0412244,0.204756 -0.101335,0.402665 -0.178406,0.591878z"/>
   </g>
   <path id="_441818504" class="fil33" d="M3.41333 0c0.942551,0 1.79589,0.382055 2.41358,0.999752 0.617697,0.617693 0.999752,1.47103 0.999752,2.41358 0,0.942551 -0.382055,1.79589 -0.999752,2.41358 -0.617693,0.617697 -1.47103,0.999752 -2.41358,0.999752 -0.942551,0 -1.79589,-0.382055 -2.41358,-0.999752 -0.617697,-0.617693 -0.999752,-1.47103 -0.999752,-2.41358 0,-0.942551 0.382055,-1.79589 0.999752,-2.41358 0.617693,-0.617697 1.47103,-0.999752 2.41358,-0.999752zm2.26731 1.14602c-0.580248,-0.580248 -1.38187,-0.939146 -2.26731,-0.939146 -0.885445,0 -1.68707,0.358898 -2.26731,0.939146 -0.580248,0.580248 -0.939146,1.38187 -0.939146,2.26731 0,0.885445 0.358898,1.68707 0.939146,2.26731 0.580248,0.580248 1.38187,0.939146 2.26731,0.939146 0.885445,0 1.68707,-0.358898 2.26731,-0.939146 0.580248,-0.580248 0.939146,-1.38187 0.939146,-2.26731 0,-0.885445 -0.358898,-1.68707 -0.939146,-2.26731z"/>
  </g>
  <path class="fil34" d="M1.67556 1.6l3.47555 0 0.0755591 0 0 0.0755591 0 3.47555 0 0.0755591 -0.0755591 0 -3.47555 0 -0.0755591 0 0 -0.0755591 0 -3.47555 0 -0.0755591 0.0755591 0zm0.0377756 0.604441l0.453331 0 0 -0.453331 0.0755591 0 0 0.453331 0.52889 0 0 -0.453331 0.0755551 0 0 0.453331 0.52889 0 0 -0.453331 0.0755591 0 0 0.453331 0.528886 0 0 -0.453331 0.0755591 0 0 0.453331 0.528886 0 0 -0.453331 0.0755591 0 0 0.453331 0.453331 0 0 0.0755551 -0.453331 0 0 0.52889 0.0280315 0c0.0480512,-0.129339 0.109657,-0.272606 0.202307,-0.358724l0.0308701 -0.0286969 0.149181 0.160331 -0.0309055 0.0287283c-0.0404764,0.037622 -0.0722913,0.0993898 -0.0950276,0.149142 -0.00741732,0.0162323 -0.0145197,0.0326614 -0.0213819,0.0492205l0.190256 0 0 0.0755591 -0.219862 0c-0.0119882,0.0320591 -0.0234882,0.0642835 -0.035,0.0962677 -0.0339252,0.0942913 -0.0681142,0.191205 -0.113657,0.280567 -0.023315,0.045752 -0.0509252,0.0917323 -0.084811,0.13176l0 0.0202913 0.453331 0 0 0.0755591 -0.453331 0 0 0.52889 0.453331 0 0 0.0755551 -0.453331 0 0 0.52889 0.453331 0 0 0.0755551 -0.453331 0 0 0.453331 -0.0755591 0 0 -0.453331 -0.528886 0 0 0.453331 -0.0755591 0 0 -0.453331 -0.528886 0 0 0.453331 -0.0755591 0 0 -0.453331 -0.52889 0 0 0.453331 -0.0755551 0 0 -0.453331 -0.52889 0 0 0.453331 -0.0755591 0 0 -0.453331 -0.453331 0 0 -0.0755551 0.0369055 0 0.00141732 -0.021437c0.000909449,-0.0137165 0.0134409,-0.0466654 0.0179567,-0.0600315 0.0139213,-0.0412402 0.0284882,-0.0822953 0.0434134,-0.123181 0.0398228,-0.109098 0.0824646,-0.217705 0.128949,-0.32424l-0.228642 0 0 -0.0755551 0.262449 0c0.0183898,-0.0400197 0.0374921,-0.0797244 0.0575669,-0.118909 0.0379409,-0.0740669 0.0821063,-0.153839 0.133315,-0.222268l0 -0.187713 -0.453331 0 0 -0.0755591 0.453331 0 0 -0.528886 -0.453331 0 0 -0.0755591 0.453331 0 0 -0.52889 -0.453331 0 0 -0.0755551zm2.94729 0.680004l-0.00061811 0 0 0.0017126 0.00061811 -0.0017126zm-2.69087 1.73778l0.196906 0 0 -0.496823c-0.0493228,0.10728 -0.0943898,0.216988 -0.136445,0.327287 -0.0148898,0.0390433 -0.0294252,0.0782441 -0.0434016,0.117618 -0.00555512,0.0156417 -0.0121024,0.0326969 -0.0168504,0.0487638l-0.000208661 0.00315354zm2.61469 -2.34223l-0.528886 0 0 0.52889 0.528886 0 0 -0.52889zm-0.604445 0l-0.528886 0 0 0.52889 0.528886 0 0 -0.52889zm-0.604445 0l-0.52889 0 0 0.52889 0.52889 0 0 -0.52889zm-0.604445 0l-0.52889 0 0 0.52889 0.52889 0 0 -0.52889zm1.81333 2.34223l0 -0.52889 -0.528886 0 0 0.52889 0.528886 0zm0 -0.604445l0 -0.52889 -0.528886 0 0 0.52889 0.528886 0zm0 -0.912528l0 -0.220807 -0.449724 0c0.136031,0.0422441 0.256921,0.197346 0.34076,0.302827 0.0129921,0.0163504 0.0229685,0.033874 0.0319213,0.0526693 0.000413386,0.000874016 0.000862205,0.00185827 0.00133858,0.00291732 0.0293543,-0.0287087 0.0494213,-0.0720827 0.0639213,-0.107563 0.00405906,-0.00993307 0.00797638,-0.0199528 0.0117835,-0.0300433zm-0.528886 -0.00954724l0 0.317626 0.323331 0c-0.0265787,-0.0282441 -0.0510787,-0.059815 -0.074878,-0.089752 -0.0455787,-0.0573504 -0.169858,-0.218622 -0.238075,-0.231134 -0.000716535,-0.000125984 -0.00144882,-0.000212598 -0.0021811,-0.000204724 -0.00258268,3.14961e-005 -0.0053622,0.00133465 -0.00819685,0.00346457zm-1.81334 -0.21126l0 0.528886 0.52889 0 0 -0.528886 -0.52889 0zm0 0.604445l0 0.10274c0.0567874,-0.0512008 0.127343,-0.0863504 0.206465,-0.0633346 0.0309528,0.009 0.0579685,0.025689 0.0807165,0.048437l0.000259843 0.00026378c0.0162598,0.016252 0.0268071,0.0402677 0.0365709,0.0608543 0.0452244,0.0952874 0.0922323,0.189764 0.145303,0.280976 0.0185197,0.0318307 0.0383268,0.0645591 0.0595748,0.0961299l0 -0.526067 -0.52889 0zm0 0.482315l0 0.0465748 0.276114 0c-0.0565315,-0.0945866 -0.103594,-0.189244 -0.136469,-0.257768 -0.00782677,0.00839764 -0.0151299,0.0169409 -0.0189803,0.0214961 -0.0460276,0.0544331 -0.0864528,0.124547 -0.120665,0.189697zm0 0.12213l0 0.52889 0.52889 0 0 -0.29735c-0.0735945,-0.0521575 -0.143638,-0.138244 -0.205346,-0.231539l-0.323543 0zm0.604445 -1.20889l0 0.528886 0.175358 0c0.00570079,-0.030563 0.0132441,-0.0601693 0.0232953,-0.0872953 0.0197441,-0.0532756 0.0524882,-0.103583 0.10937,-0.121469 0.0162953,-0.00512598 0.0332283,-0.00708661 0.0502756,-0.00645276 0.0560039,0.00207087 0.103941,0.0355315 0.143374,0.0726142 0.00928346,0.00873228 0.0183465,0.0178504 0.0272165,0.0272441l0 -0.413528 -0.52889 0zm0 0.604445l0 0.52889 0.118213 0c0.0105945,-0.0527205 0.0173543,-0.107004 0.0227402,-0.16026 0.00904331,-0.0894134 0.0140197,-0.179559 0.0173465,-0.26935 0.00116535,-0.031437 0.00303543,-0.0652008 0.0064685,-0.0992795l-0.164768 0zm0.333 0.52889l0.19589 0 0 -0.376177c-0.0284291,-0.0329488 -0.0544094,-0.0661339 -0.0775906,-0.095248 -0.0152559,-0.0191654 -0.0305,-0.0384331 -0.0459961,-0.0574646l-0.0236811 0c-0.00191339,0.0357008 -0.00328346,0.0714803 -0.0046063,0.107146 -0.0041811,0.112969 -0.0122559,0.22726 -0.0293858,0.339067 -0.00419291,0.0273465 -0.00898425,0.0550433 -0.0146299,0.0826772zm-0.333 0.0755551l0 0.0184567c0.0194331,0.0203031 0.0465551,0.044752 0.0648346,0.045752 0.0058622,-0.00250394 0.0152205,-0.0185079 0.0177874,-0.0234055 0.00649213,-0.0123819 0.0119764,-0.0263701 0.0166654,-0.0408031l-0.0992874 0zm0 0.271705l0 0.257185 0.52889 0 0 -0.52889 -0.213783 0c-0.00693701,0.0253425 -0.0148268,0.0503031 -0.023878,0.0745394 -0.0339173,0.0908031 -0.0924331,0.189965 -0.197075,0.206291 -0.0121693,0.00190157 -0.0244961,0.00257087 -0.0368071,0.00211417 -0.019189,-0.000712598 -0.0383268,-0.00462992 -0.0573465,-0.0112402zm0.604449 -1.48059l0 0.502575c0.00613386,0.00770079 0.0122205,0.015374 0.0182756,0.0229803l0.00264173 0.00333071 0.258567 0c0.00861024,-0.0369843 0.0157283,-0.0741654 0.0220984,-0.10889 0.0261063,-0.142343 0.0829803,-0.35852 0.227303,-0.416776l0 -0.00322047 -0.528886 0zm0.503087 0.528886l0.0257992 0 0 -0.130122c-0.00461024,0.0212165 -0.00856299,0.0418307 -0.0120236,0.0606969 -0.00382283,0.0208386 -0.00834646,0.0443346 -0.0137756,0.0694252zm-0.503087 0.307264l0 0.297185 0.528886 0 0 -0.52889 -0.0441063 0c-0.0456929,0.168437 -0.134437,0.359976 -0.318209,0.326276 -0.0599449,-0.0109961 -0.115921,-0.0480866 -0.166571,-0.0945709zm0.259244 -0.231705l-0.177067 0c0.0426339,0.0502756 0.0937953,0.104449 0.122858,0.110791 0.0130669,-0.00631102 0.0323031,-0.0500433 0.0368307,-0.061374 0.00631102,-0.0158071 0.0120748,-0.032378 0.017378,-0.0494173zm-0.259244 0.604445l0 0.52889 0.528886 0 0 -0.52889 -0.528886 0z"/>
 </g>
</svg>
