<?xml version="1.0" encoding="UTF-8"?>
<!DOCTYPE svg PUBLIC "-//W3C//DTD SVG 1.1//EN" "http://www.w3.org/Graphics/SVG/1.1/DTD/svg11.dtd">
<!-- Creator: CorelDRAW -->
<svg xmlns="http://www.w3.org/2000/svg" xml:space="preserve" width="6.82666in" height="6.82666in" style="shape-rendering:geometricPrecision; text-rendering:geometricPrecision; image-rendering:optimizeQuality; fill-rule:evenodd; clip-rule:evenodd"
viewBox="0 0 6.82666 6.82666"
 xmlns:xlink="http://www.w3.org/1999/xlink">
 <defs>
  <style type="text/css">
   <![CDATA[
    .fil37 {fill:#B04A4A}
    .fil33 {fill:#DC7E7E}
    .fil34 {fill:#DE8787}
    .fil1 {fill:#DE8887}
    .fil7 {fill:#DE8989}
    .fil22 {fill:#DF8C8C}
    .fil0 {fill:#E08E8E}
    .fil16 {fill:#E09090}
    .fil25 {fill:#E19595}
    .fil8 {fill:#E19797}
    .fil17 {fill:#E39B9A}
    .fil15 {fill:#E49E9E}
    .fil9 {fill:#E4A0A0}
    .fil3 {fill:#E5A5A5}
    .fil13 {fill:#E7A9A9}
    .fil6 {fill:#E8ABAB}
    .fil2 {fill:#E8ACAC}
    .fil31 {fill:#E9AEAE}
    .fil35 {fill:#EAB0B0}
    .fil21 {fill:#EAB1B0}
    .fil14 {fill:#EAB4B4}
    .fil11 {fill:#EAB6B6}
    .fil10 {fill:#EBBCBC}
    .fil19 {fill:#EBBDBD}
    .fil12 {fill:#ECBEBE}
    .fil5 {fill:#ECC0BF}
    .fil18 {fill:#EDC1C1}
    .fil30 {fill:#EEC4C4}
    .fil4 {fill:#EFC6C6}
    .fil20 {fill:#F0C7C7}
    .fil23 {fill:#F0C9C8}
    .fil29 {fill:#F0CACA}
    .fil24 {fill:#F0CCCC}
    .fil27 {fill:#F1CFCE}
    .fil26 {fill:#F2D3D3}
    .fil28 {fill:#F3D6D5}
    .fil32 {fill:#F4DADA}
    .fil36 {fill:#B04A4A;fill-rule:nonzero}
   ]]>
  </style>
 </defs>
 <g id="Layer_x0020_1">
  <metadata id="CorelCorpID_0Corel-Layer"/>
  <g id="_431849848">
   <path id="_431853472" class="fil0" d="M3.41333 0.103327c1.82806,0 3.31,1.48194 3.31,3.31 0,1.82806 -1.48195,3.31 -3.31,3.31 -1.82806,0 -3.31,-1.48194 -3.31,-3.31 0,-1.82806 1.48194,-3.31 3.31,-3.31z"/>
   <g>
    <path id="_431854048" class="fil1" d="M0.848185 1.34935l-0.00885827 -0.0168425c0.00755512,-0.00933071 0.0150236,-0.0187362 0.0226732,-0.0279843l-0.013815 0.0448268z"/>
    <path id="_431853976" class="fil2" d="M0.103457 3.42364l0.0734921 0.129063 -0.0561496 0.202406c-0.0111811,-0.109004 -0.017,-0.219591 -0.0173425,-0.331469z"/>
    <path id="_431853616" class="fil3" d="M0.176949 3.5527l-0.0734921 -0.129063c-1.1811e-005,-0.00344488 -0.000129921,-0.0068622 -0.000129921,-0.010311 0,-0.0520866 0.00135827,-0.10385 0.00373622,-0.155346l0.0698858 0.29472z"/>
    <path id="_431853736" class="fil4" d="M1.18756 5.86327l0.776094 -0.143965 -0.0895 0.624878c-0.249299,-0.131197 -0.479941,-0.293059 -0.686594,-0.480913z"/>
    <path id="_431853544" class="fil5" d="M0.877732 5.54075l0.569472 -2.23293 0.516449 2.41148 -0.776094 0.143965c-0.110394,-0.100362 -0.213823,-0.208217 -0.309827,-0.32252z"/>
    <path id="_431853928" class="fil6" d="M1.4472 3.30782l-1.24758 -0.689295c0.0193701,-0.0785748 0.0415394,-0.156035 0.0664055,-0.232291l1.25356 -0.277957 -0.0723819 1.19954z"/>
    <path id="_431853304" class="fil7" d="M0.839327 1.3325l0.00885827 0.0168425 -0.0254252 0.00373228c0.00548819,-0.00688583 0.0110276,-0.0137323 0.0165669,-0.0205748z"/>
    <path id="_431853568" class="fil8" d="M0.82276 1.35308l0.0254252 -0.00373228 -0.185295 0.222043c0.0503425,-0.0750157 0.103724,-0.147807 0.15987,-0.218311z"/>
    <path id="_431853688" class="fil9" d="M0.66289 1.57139l0.185295 -0.222043 0.671402 0.758933 -1.25356 0.277957c0.0950827,-0.291465 0.22935,-0.565213 0.396858,-0.814846z"/>
    <path id="_431853400" class="fil2" d="M0.176949 3.5527l0 0 -0.0698858 -0.29472c0.0101417,-0.219425 0.0417283,-0.43322 0.092563,-0.639457l1.24758 0.689295 -1.27026 0.244882z"/>
    <path id="_431852896" class="fil10" d="M0.206898 4.23793l1.24031 -0.93011 -0.569472 2.23293c-0.313394,-0.373134 -0.546087,-0.816307 -0.670835,-1.30281z"/>
    <path id="_431852728" class="fil11" d="M0.120799 3.75511l0.0561496 -0.202406 1.27026 -0.244882 -1.24031 0.93011c-0.0401969,-0.156756 -0.069189,-0.317996 -0.0860984,-0.482823z"/>
    <polygon id="_431852752" class="fil12" points="2.78985,4.64202 1.4472,3.30782 2.33542,3.05076 "/>
    <polygon id="_431852632" class="fil13" points="2.33542,3.05076 1.51959,2.10828 2.08762,1.129 "/>
    <polygon id="_431852680" class="fil14" points="1.4472,3.30782 1.51959,2.10828 2.33542,3.05076 "/>
    <path id="_431852560" class="fil15" d="M4.66961 2.62237l-0.660965 -1.18732 1.14096 -0.840087c0.0476378,0.0294094 0.0944449,0.0600157 0.140441,0.0917323l-0.620441 1.93567z"/>
    <path id="_431852800" class="fil16" d="M0.848185 1.34935l0.013815 -0.0448268c0.166327,-0.201 0.355965,-0.38198 0.564744,-0.538886l0.660874 0.363366 -1.23943 0.220346z"/>
    <polygon id="_431853280" class="fil17" points="1.51959,2.10828 1.51959,2.10828 0.848185,1.34935 2.08762,1.129 "/>
    <path id="_431852608" class="fil7" d="M2.08762 1.129l-0.660874 -0.363366c0.201024,-0.151071 0.419878,-0.27963 0.65272,-0.382299l0.00815354 0.745665z"/>
    <polygon id="_431852944" class="fil18" points="1.96365,5.7193 1.96365,5.7193 1.4472,3.30782 2.78985,4.64202 "/>
    <polygon id="_431851840" class="fil19" points="4.34946,4.32378 3.48188,3.73625 4.66961,2.62237 "/>
    <path id="_431851816" class="fil20" d="M1.87415 6.34418l0.0895 -0.624878 0.602299 0.89437c-0.242626,-0.0641299 -0.474346,-0.155055 -0.691799,-0.269492z"/>
    <polygon id="_431852080" class="fil21" points="3.48188,3.73625 4.00864,1.43505 4.66961,2.62237 "/>
    <path id="_431852032" class="fil22" d="M2.08762 1.129l0 0 -0.00815354 -0.745665c0.115516,-0.0509252 0.234425,-0.0955551 0.356402,-0.133228l1.08736 0.230075 -1.43561 0.648819z"/>
    <polygon id="_431852416" class="fil5" points="2.78985,4.64202 2.78985,4.64202 2.33542,3.05076 3.48188,3.73625 "/>
    <polygon id="_431852296" class="fil23" points="3.62652,6.6617 1.96365,5.7193 2.78985,4.64202 "/>
    <path id="_431852200" class="fil24" d="M2.56595 6.61367l-0.602299 -0.89437 1.66286 0.942398 -0.117362 0.0601575c-0.0318386,0.000905512 -0.0637638,0.00147638 -0.0958228,0.00147638 -0.292929,0 -0.576898,-0.0382323 -0.847378,-0.109661z"/>
    <polygon id="_431852224" class="fil14" points="3.48188,3.73625 3.48188,3.73625 2.33542,3.05076 4.00864,1.43505 "/>
    <polygon id="_431852512" class="fil3" points="2.33542,3.05076 2.33542,3.05076 2.08762,1.129 4.00864,1.43505 "/>
    <polygon id="_431852152" class="fil25" points="4.00864,1.43505 2.08762,1.129 3.52323,0.480181 "/>
    <path id="_431852368" class="fil26" d="M3.50915 6.72186l0.117362 -0.0601575 0.0260118 0.0529606c-0.0475276,0.00339764 -0.095315,0.00583071 -0.143374,0.00719685z"/>
    <polygon id="_431851528" class="fil27" points="3.62652,6.6617 3.62652,6.6617 2.78985,4.64202 4.25653,6.29448 "/>
    <polygon id="_431851480" class="fil23" points="4.25653,6.29448 4.25653,6.29448 2.78985,4.64202 4.34946,4.32378 "/>
    <path id="_431851216" class="fil28" d="M3.65253 6.71466l-0.0260118 -0.0529606 0.630016 -0.36722 -0.0383425 0.330102c-0.183008,0.0457205 -0.372012,0.076248 -0.565661,0.0900787z"/>
    <polygon id="_431851456" class="fil18" points="2.78985,4.64202 3.48188,3.73625 4.34946,4.32378 "/>
    <path id="_431851192" class="fil16" d="M4.00864 1.43505l0 0 -0.485413 -0.95487 1.35455 -0.0358307c0.0931732,0.0460472 0.183866,0.096311 0.271831,0.150614l-1.14096 0.840087z"/>
    <polygon id="_431851384" class="fil24" points="4.25653,6.29448 4.34946,4.32378 5.32029,4.96029 "/>
    <path id="_431851336" class="fil1" d="M3.52323 0.480181l0 0 -1.08736 -0.230075c0.0435866,-0.0134528 0.0875906,-0.0259291 0.131925,-0.0376142l2.17718 0.16987c0.0447953,0.0197087 0.0890709,0.040378 0.132803,0.0619882l-1.35455 0.0358307z"/>
    <path id="_431851000" class="fil29" d="M5.7747 5.7325l-0.454413 -0.772209 0.671319 -0.734358 0.0964843 1.13719c-0.0954606,0.130713 -0.20022,0.254169 -0.31339,0.369382z"/>
    <polygon id="_431851264" class="fil30" points="5.32029,4.96029 5.32029,4.96029 4.34946,4.32378 5.99161,4.22593 "/>
    <path id="_431851120" class="fil31" d="M5.99161 4.22593l-1.322 -1.60356 1.41277 -1.16667c0.0535709,0.0729134 0.104248,0.148071 0.151819,0.225358l-0.242587 2.54487z"/>
    <path id="_431850568" class="fil17" d="M4.66961 2.62237l0.620441 -1.93567c0.305098,0.210398 0.573087,0.470657 0.792331,0.769008l-1.41277 1.16667z"/>
    <path id="_431850352" class="fil26" d="M4.96148 6.33945l-0.704945 -0.0449685 1.06376 -1.33419 0.454413 0.772209c-0.237335,0.241591 -0.511398,0.446921 -0.813228,0.606949z"/>
    <polygon id="_431850760" class="fil10" points="4.34946,4.32378 4.66961,2.62237 5.99161,4.22593 "/>
    <path id="_431850256" class="fil32" d="M4.21819 6.62458l0.0383425 -0.330102 0.704945 0.0449685c-0.232693,0.123358 -0.481807,0.219803 -0.743287,0.285134z"/>
    <path id="_431850952" class="fil33" d="M3.91769 0.141512l-1.12396 0.0199685c0.200744,-0.0380197 0.407811,-0.0581535 0.61961,-0.0581535 0.171476,0 0.339906,0.0130433 0.504354,0.038185z"/>
    <path id="_431850520" class="fil34" d="M4.74497 0.382362l-2.17718 -0.16987c0.074315,-0.0195787 0.149677,-0.0365512 0.225929,-0.0510118l1.12396 -0.0199685c0.289854,0.0443819 0.567287,0.126453 0.827287,0.24085z"/>
    <path id="_431850712" class="fil6" d="M5.99161 4.22593l0.242587 -2.54487c0.303311,0.492858 0.480945,1.07121 0.48861,1.69056l-0.731197 0.854315z"/>
    <path id="_431850904" class="fil35" d="M5.99161 4.22593l0.731197 -0.854315c0.000173228,0.0139055 0.000527559,0.0277677 0.000527559,0.0417126 0,0.224094 -0.0224016,0.442941 -0.0648465,0.654543l-0.666878 0.158059z"/>
    <path id="_431850400" class="fil20" d="M6.08809 5.36312l-0.0964843 -1.13719 0.488319 0.43489c-0.102228,0.250917 -0.234256,0.4865 -0.391835,0.702295z"/>
    <path id="_431850592" class="fil19" d="M6.47993 4.66082l-0.488319 -0.43489 0.666878 -0.158059c-0.0412087,0.205134 -0.10137,0.403406 -0.178559,0.592949z"/>
   </g>
   <path id="_431849608" class="fil36" d="M3.41333 0c0.942551,0 1.79589,0.382055 2.41358,0.999752 0.617697,0.617693 0.999752,1.47103 0.999752,2.41358 0,0.942551 -0.382055,1.79589 -0.999752,2.41358 -0.617693,0.617697 -1.47103,0.999752 -2.41358,0.999752 -0.942551,0 -1.79589,-0.382055 -2.41358,-0.999752 -0.617697,-0.617693 -0.999752,-1.47103 -0.999752,-2.41358 0,-0.942551 0.382055,-1.79589 0.999752,-2.41358 0.617693,-0.617697 1.47103,-0.999752 2.41358,-0.999752zm2.26731 1.14602c-0.580248,-0.580248 -1.38187,-0.939146 -2.26731,-0.939146 -0.885445,0 -1.68707,0.358898 -2.26731,0.939146 -0.580248,0.580248 -0.939146,1.38187 -0.939146,2.26731 0,0.885445 0.358898,1.68707 0.939146,2.26731 0.580248,0.580248 1.38187,0.939146 2.26731,0.939146 0.885445,0 1.68707,-0.358898 2.26731,-0.939146 0.580248,-0.580248 0.939146,-1.38187 0.939146,-2.26731 0,-0.885445 -0.358898,-1.68707 -0.939146,-2.26731z"/>
  </g>
  <path class="fil37" d="M1.67556 1.6l3.47555 0 0.0755591 0 0 0.0755591 0 3.47555 0 0.0755591 -0.0755591 0 -3.47555 0 -0.0755591 0 0 -0.0755591 0 -3.47555 0 -0.0755591 0.0755591 0zm1.22542 1.71627c-0.0205,-0.0205 -0.0488386,-0.033185 -0.0801417,-0.033185 -0.0313031,0 -0.0596417,0.0126811 -0.0801457,0.033185 -0.0205039,0.0205 -0.033185,0.0488386 -0.033185,0.0801457 0,0.0313031 0.0126811,0.0596417 0.033185,0.0801417 0.0205039,0.0205039 0.0488425,0.033189 0.0801457,0.033189 0.0313031,0 0.0596417,-0.012689 0.0801417,-0.033189 0.0205039,-0.0205039 0.033189,-0.0488386 0.033189,-0.0801417 0,-0.0313071 -0.012685,-0.0596417 -0.033189,-0.0801457zm1.19014 0.621945c-0.0205079,-0.0205039 -0.0488425,-0.033185 -0.0801457,-0.033185 -0.0312992,0 -0.0596417,0.012685 -0.0801417,0.033185 -0.0205039,0.0205039 -0.033189,0.0488425 -0.033189,0.0801457 0,0.0313031 0.0126811,0.0596378 0.033189,0.0801417 0.0205,0.0205 0.0488386,0.033189 0.0801417,0.033189 0.0313031,0 0.0596417,-0.012685 0.0801457,-0.033189 0.0205,-0.0205 0.033185,-0.0488386 0.033185,-0.0801417 0,-0.0313031 -0.012685,-0.0596457 -0.033185,-0.0801457zm0.568886 -2.18711l0 0.453331 0.453331 0 0 0.0755551 -0.453331 0 0 0.52889 0.386047 0 0.0115 -0.0126929 0.0140276 0.0126929 0.0417559 0 0 0.0377795 0.0557835 0.0504685 -0.467803 0.516197 0.41202 0 0 0.0755591 -0.453331 0 0 0.52889 0.453331 0 0 0.0755551 -0.453331 0 0 0.52889 0.453331 0 0 0.0755551 -0.453331 0 0 0.453331 -0.0755591 0 0 -0.453331 -0.528886 0 0 0.453331 -0.0755591 0 0 -0.453331 -0.528886 0 0 0.453331 -0.0755591 0 0 -0.453331 -0.52889 0 0 0.453331 -0.0755551 0 0 -0.453331 -0.52889 0 0 0.453331 -0.0755591 0 0 -0.453331 -0.11302 0 -0.314634 0.493768 -0.126909 -0.0808701 0.263106 -0.412898 -0.161874 0 0 -0.0755551 0.21002 0 0.243311 -0.381839 0 -0.147051 -0.453331 0 0 -0.0755551 0.453331 0 0 -0.52889 -0.453331 0 0 -0.0755591 0.453331 0 0 -0.528886 -0.453331 0 0 -0.0755591 0.453331 0 0 -0.52889 -0.453331 0 0 -0.0755551 0.453331 0 0 -0.453331 0.0755591 0 0 0.453331 0.52889 0 0 -0.453331 0.0755551 0 0 0.453331 0.52889 0 0 -0.453331 0.0755591 0 0 0.453331 0.528886 0 0 -0.453331 0.0755591 0 0 0.453331 0.528886 0 0 -0.453331 0.0755591 0zm0.317575 1.13333l-0.317575 0 0 0.350425 0.317575 -0.350425zm-2.87579 1.73778l0.064874 0 0 -0.101811 -0.064874 0.101811zm2.48266 0l0 -0.52889 -0.319811 0c-0.0126575,0.042878 -0.0358898,0.0812205 -0.0666772,0.112012 -0.0378976,0.0378976 -0.087248,0.0643425 -0.142398,0.0737126l0 0.343165 0.528886 0zm-0.309031 -0.604445l0.309031 0 0 -0.475488 -0.332531 0.366937c0.0150197,0.0331024 0.0234173,0.0698543 0.0235,0.108551zm0.154386 -0.52889l-0.37424 0 0 0.268772c0.0351417,0.00597244 0.0679291,0.018878 0.0968976,0.0372598l0.277343 -0.306031zm-0.449799 0.266823l0 -0.266823 -0.528886 0 0 0.160138 0.355862 0.201063c0.00537402,-0.00650787 0.0110512,-0.012752 0.0170118,-0.0187126 0.0409882,-0.0409921 0.0953701,-0.0685906 0.156012,-0.0756654zm-0.528886 0.0660433l0 0.196024 0.295413 0c1.9685e-005,-0.00953937 0.000547244,-0.0189606 0.00155512,-0.0282362l-0.296969 -0.167787zm0.306197 0.271579l-0.306197 0 0 0.52889 0.528886 0 0 -0.341217c-0.0606378,-0.0070748 -0.115024,-0.0346732 -0.156012,-0.0756614 -0.0307913,-0.0307913 -0.0540197,-0.0691339 -0.0666772,-0.112012zm0.827134 -0.775091l0 -0.433799 -0.528886 0 0 0.528886 0.442713 0 0.0861732 -0.0950866zm-0.604445 0.0950866l0 -0.528886 -0.528886 0 0 0.528886 0.528886 0zm0.604445 -0.604445l0 -0.52889 -0.528886 0 0 0.52889 0.528886 0zm-2.34222 1.81334l0.52889 0 0 -0.52889 -0.332307 0 -0.196583 0.308504 0 0.220386zm0.0181417 -0.52889l-0.0181417 0 0 0.0284724 0.0181417 -0.0284724zm0.586303 0.52889l0.52889 0 0 -0.52889 -0.52889 0 0 0.52889zm1.13333 -2.34223l-0.528886 0 0 0.52889 0.528886 0 0 -0.52889zm-0.604445 0l-0.52889 0 0 0.52889 0.52889 0 0 -0.52889zm-0.604445 0l-0.52889 0 0 0.52889 0.52889 0 0 -0.52889zm0.604445 0.604449l-0.52889 0 0 0.248776c0.0627047,0.00608268 0.119008,0.0340669 0.161154,0.0762087 0.0478583,0.0478583 0.0774606,0.113972 0.0774606,0.186988 0,0.0056811 -0.000177165,0.0113189 -0.000531496,0.0169134l0.290807 0 0 -0.528886zm-0.604445 0.252197l0 -0.252197 -0.52889 0 0 0.528886 0.314705 0c-0.000354331,-0.00559055 -0.000535433,-0.0112323 -0.000535433,-0.0169134 0,-0.0730157 0.0296024,-0.13913 0.0774567,-0.186988 0.0367205,-0.0367165 0.0841811,-0.062685 0.137264,-0.0727874zm-0.198091 0.352248l-0.330799 0 0 0.52889 0.0662913 0 0.297587 -0.467016c-0.0136142,-0.0189055 -0.0247953,-0.039685 -0.0330787,-0.061874zm-0.0860709 0.52889l0.284161 0 0 -0.361591c-0.0156929,-0.00298819 -0.0308937,-0.0073622 -0.0454724,-0.0129921l-0.238689 0.374583zm0.359717 -0.358169l0 0.358169 0.52889 0 0 -0.238713 -0.360209 -0.20352c-0.00245669,0.00266929 -0.00496457,0.0052874 -0.00752756,0.00785433 -0.0421457,0.0421417 -0.0984488,0.070126 -0.161154,0.0762087zm0.52889 -0.0532717l0 -0.117449 -0.207874 0 0.207874 0.117449z"/>
 </g>
</svg>
