<?xml version="1.0" encoding="UTF-8"?>
<!DOCTYPE svg PUBLIC "-//W3C//DTD SVG 1.1//EN" "http://www.w3.org/Graphics/SVG/1.1/DTD/svg11.dtd">
<!-- Creator: CorelDRAW -->
<svg xmlns="http://www.w3.org/2000/svg" xml:space="preserve" width="6.82666in" height="6.82666in" style="shape-rendering:geometricPrecision; text-rendering:geometricPrecision; image-rendering:optimizeQuality; fill-rule:evenodd; clip-rule:evenodd"
viewBox="0 0 6.82666 6.82666"
 xmlns:xlink="http://www.w3.org/1999/xlink">
 <defs>
  <style type="text/css">
   <![CDATA[
    .fil31 {fill:#819DD0}
    .fil1 {fill:#88A3D3}
    .fil7 {fill:#8BA5D4}
    .fil16 {fill:#90A9D6}
    .fil24 {fill:#96ADD8}
    .fil8 {fill:#97AFD9}
    .fil17 {fill:#9DB2DB}
    .fil15 {fill:#9EB3DC}
    .fil0 {fill:#9FB5DD}
    .fil9 {fill:#A0B5DC}
    .fil3 {fill:#A6B9DD}
    .fil13 {fill:#AABCDF}
    .fil32 {fill:#ABBDDF}
    .fil6 {fill:#ACBFE0}
    .fil2 {fill:#ADC0E0}
    .fil33 {fill:#AFC1E1}
    .fil21 {fill:#B1C1E2}
    .fil14 {fill:#B4C4E3}
    .fil11 {fill:#B6C6E4}
    .fil10 {fill:#BBCAE5}
    .fil19 {fill:#BDCBE5}
    .fil12 {fill:#BECCE6}
    .fil5 {fill:#C0CEE6}
    .fil18 {fill:#C1CFE7}
    .fil29 {fill:#C4D1E8}
    .fil4 {fill:#C5D2E9}
    .fil20 {fill:#C8D3EA}
    .fil22 {fill:#C9D5EA}
    .fil28 {fill:#CAD5EB}
    .fil23 {fill:#CAD6EB}
    .fil26 {fill:#CED8EB}
    .fil25 {fill:#D3DCEE}
    .fil27 {fill:#D5DDEE}
    .fil30 {fill:#DAE2F0}
    .fil34 {fill:#505B6E;fill-rule:nonzero}
   ]]>
  </style>
 </defs>
 <g id="Layer_x0020_1">
  <metadata id="CorelCorpID_0Corel-Layer"/>
  <g id="_431841064">
   <path id="_440289760" class="fil0" d="M3.41333 0.103323c1.82806,0 3.31001,1.48194 3.31001,3.31001 0,1.82806 -1.48195,3.31001 -3.31001,3.31001 -1.82806,0 -3.31001,-1.48195 -3.31001,-3.31001 0,-1.82806 1.48194,-3.31001 3.31001,-3.31001z"/>
   <g>
    <path id="_440289880" class="fil1" d="M0.848118 1.34935l-0.00883465 -0.0168031c0.00753937,-0.00931496 0.0149882,-0.0187008 0.022626,-0.0279331l-0.0137913 0.0447362z"/>
    <path id="_440289736" class="fil2" d="M0.103453 3.42362l0.0735079 0.129094 -0.0561614 0.202437c-0.011185,-0.109024 -0.0170039,-0.219634 -0.0173465,-0.331531z"/>
    <path id="_440289088" class="fil3" d="M0.176961 3.55271l-0.0735079 -0.129094c-1.1811e-005,-0.00343701 -0.000129921,-0.00684646 -0.000129921,-0.0102874 0,-0.0520906 0.0013622,-0.103858 0.00374016,-0.155358l0.0698976 0.29474z"/>
    <path id="_440288632" class="fil4" d="M1.18753 5.86325l0.77622 -0.144016 -0.0895591 0.624976c-0.249323,-0.131205 -0.479988,-0.293087 -0.686661,-0.480961z"/>
    <path id="_440289016" class="fil5" d="M0.877665 5.54067l0.569555 -2.23284 0.516531 2.4114 -0.77622 0.144016c-0.110406,-0.100378 -0.21385,-0.208252 -0.309866,-0.322575z"/>
    <path id="_440288512" class="fil6" d="M1.44722 3.30783l-1.2476 -0.689287c0.0193701,-0.0785866 0.0415433,-0.156059 0.0664173,-0.232323l1.25352 -0.278016 -0.0723386 1.19963z"/>
    <path id="_440288560" class="fil7" d="M0.839283 1.33255l0.00883465 0.0168031 -0.0253661 0.00372047c0.00547244,-0.00687402 0.0110039,-0.0136969 0.0165315,-0.0205236z"/>
    <path id="_440288584" class="fil8" d="M0.822752 1.35307l0.0253661 -0.00372047 -0.185051 0.22176c0.0502874,-0.0749213 0.103606,-0.147622 0.159685,-0.218039z"/>
    <path id="_440288848" class="fil9" d="M0.663067 1.57111l0.185051 -0.22176 0.671441 0.75885 -1.25352 0.278016c0.0951181,-0.291567 0.229441,-0.565406 0.397031,-0.815106z"/>
    <path id="_440288776" class="fil2" d="M0.176961 3.55271l0 0 -0.0698976 -0.29474c0.0101417,-0.219417 0.0417244,-0.433201 0.0925551,-0.639429l1.2476 0.689287 -1.27026 0.244882z"/>
    <path id="_440288704" class="fil10" d="M0.20689 4.23793l1.24033 -0.930094 -0.569555 2.23284c-0.313362,-0.373122 -0.546035,-0.816268 -0.670776,-1.30275z"/>
    <path id="_440289136" class="fil11" d="M0.120799 3.75515l0.0561614 -0.202437 1.27026 -0.244882 -1.24033 0.930094c-0.040189,-0.15674 -0.0691811,-0.317969 -0.0860906,-0.482776z"/>
    <polygon id="_440288752" class="fil12" points="2.78978,4.64198 1.44722,3.30783 2.33528,3.05077 "/>
    <polygon id="_440287840" class="fil13" points="2.33528,3.05077 1.51956,2.1082 2.08767,1.12901 "/>
    <polygon id="_440284360" class="fil14" points="1.44722,3.30783 1.51956,2.1082 2.33528,3.05077 "/>
    <path id="_440284312" class="fil15" d="M4.66963 2.62234l-0.661004 -1.18728 1.14099 -0.840094c0.047626,0.0294016 0.0944252,0.06 0.140406,0.0917087l-0.62039 1.93567z"/>
    <path id="_440284072" class="fil16" d="M0.848118 1.34935l0.0137913 -0.0447362c0.166346,-0.201043 0.356024,-0.382063 0.564839,-0.538992l0.660925 0.363382 -1.23956 0.220346z"/>
    <polygon id="_440283640" class="fil17" points="1.51956,2.1082 1.51956,2.1082 0.848118,1.34935 2.08767,1.12901 "/>
    <path id="_440283616" class="fil7" d="M2.08767 1.12901l-0.660925 -0.363382c0.201039,-0.151083 0.419906,-0.279646 0.652772,-0.382319l0.00815354 0.745701z"/>
    <polygon id="_440283256" class="fil18" points="1.96375,5.71923 1.96375,5.71923 1.44722,3.30783 2.78978,4.64198 "/>
    <polygon id="_440283280" class="fil19" points="4.34952,4.32375 3.4819,3.73626 4.66963,2.62234 "/>
    <path id="_440283568" class="fil20" d="M1.87419 6.34421l0.0895591 -0.624976 0.602114 0.894421c-0.242583,-0.064126 -0.474256,-0.155031 -0.691673,-0.269445z"/>
    <polygon id="_440283808" class="fil21" points="3.4819,3.73626 4.00862,1.43506 4.66963,2.62234 "/>
    <path id="_440283856" class="fil7" d="M2.08767 1.12901l0 0 -0.00815354 -0.745701c0.115476,-0.0509055 0.234346,-0.0955197 0.356276,-0.133185l1.08737 0.230067 -1.43549 0.648819z"/>
    <polygon id="_440283832" class="fil5" points="2.78978,4.64198 2.78978,4.64198 2.33528,3.05077 3.4819,3.73626 "/>
    <polygon id="_440283760" class="fil22" points="3.62645,6.66163 1.96375,5.71923 2.78978,4.64198 "/>
    <path id="_440283328" class="fil23" d="M2.56587 6.61365l-0.602114 -0.894421 1.6627 0.942402 -0.117492 0.0602362c-0.0317756,0.000901575 -0.0636339,0.0014685 -0.0956299,0.0014685 -0.292961,0 -0.576957,-0.0382402 -0.847465,-0.109685z"/>
    <polygon id="_440283496" class="fil14" points="3.4819,3.73626 3.4819,3.73626 2.33528,3.05077 4.00862,1.43506 "/>
    <polygon id="_431862664" class="fil3" points="2.33528,3.05077 2.33528,3.05077 2.08767,1.12901 4.00862,1.43506 "/>
    <polygon id="_431840752" class="fil24" points="4.00862,1.43506 2.08767,1.12901 3.52317,0.480189 "/>
    <path id="_431865640" class="fil25" d="M3.50896 6.72187l0.117492 -0.0602362 0.0260472 0.0530354c-0.0475787,0.00340157 -0.0954252,0.00583465 -0.143539,0.00720079z"/>
    <polygon id="_431861680" class="fil26" points="3.62645,6.66163 3.62645,6.66163 2.78978,4.64198 4.25651,6.29437 "/>
    <polygon id="_431855944" class="fil22" points="4.25651,6.29437 4.25651,6.29437 2.78978,4.64198 4.34952,4.32375 "/>
    <path id="_431849992" class="fil27" d="M3.6525 6.71467l-0.0260472 -0.0530354 0.630055 -0.367264 -0.0383661 0.330228c-0.183004,0.0457126 -0.372,0.0762402 -0.565642,0.0900709z"/>
    <polygon id="_431842840" class="fil18" points="2.78978,4.64198 3.4819,3.73626 4.34952,4.32375 "/>
    <path id="_431842240" class="fil16" d="M4.00862 1.43506l0 0 -0.485457 -0.954866 1.35469 -0.0358071c0.0931457,0.0460354 0.183823,0.0962913 0.27176,0.150579l-1.14099 0.840094z"/>
    <polygon id="_431842480" class="fil23" points="4.25651,6.29437 4.34952,4.32375 5.32031,4.96022 "/>
    <path id="_431842288" class="fil1" d="M3.52317 0.480189l0 0 -1.08737 -0.230067c0.043563,-0.0134488 0.0875472,-0.0259173 0.131858,-0.0375984l2.17747 0.169902c0.0447717,0.0197008 0.0890197,0.0403583 0.132724,0.0619567l-1.35469 0.0358071z"/>
    <path id="_431842144" class="fil28" d="M5.77474 5.73247l-0.454433 -0.772248 0.67128 -0.734358 0.0965276 1.13723c-0.0954567,0.130705 -0.200213,0.254161 -0.313374,0.369374z"/>
    <polygon id="_431842024" class="fil29" points="5.32031,4.96022 5.32031,4.96022 4.34952,4.32375 5.99159,4.22586 "/>
    <path id="_431841976" class="fil2" d="M5.99159 4.22586l-1.32196 -1.60352 1.41274 -1.16666c0.0535591,0.0728976 0.104224,0.148031 0.151787,0.225303l-0.242563 2.54488z"/>
    <path id="_431842192" class="fil17" d="M4.66963 2.62234l0.62039 -1.93567c0.305106,0.210398 0.573102,0.470657 0.79235,0.769008l-1.41274 1.16666z"/>
    <path id="_431842360" class="fil25" d="M4.96159 6.33939l-0.705087 -0.0450197 1.0638 -1.33415 0.454433 0.772248c-0.237315,0.241575 -0.51135,0.446898 -0.81315,0.606921z"/>
    <polygon id="_431842096" class="fil10" points="4.34952,4.32375 4.66963,2.62234 5.99159,4.22586 "/>
    <path id="_431841784" class="fil30" d="M4.21814 6.6246l0.0383661 -0.330228 0.705087 0.0450197c-0.23274,0.123394 -0.481913,0.21987 -0.743453,0.285209z"/>
    <path id="_431841760" class="fil31" d="M3.91771 0.141512l-1.12419 0.0200039c0.200803,-0.0380433 0.407937,-0.0581929 0.619807,-0.0581929 0.171488,0 0.339921,0.0130433 0.504382,0.038189z"/>
    <path id="_431841688" class="fil1" d="M4.74513 0.382425l-2.17747 -0.169902c0.0742953,-0.0195787 0.149634,-0.0365433 0.22587,-0.0510079l1.12419 -0.0200039c0.289902,0.0443937 0.567378,0.126484 0.827413,0.240913z"/>
    <path id="_431841472" class="fil32" d="M5.99159 4.22586l0.242563 -2.54488c0.303327,0.492858 0.480972,1.07121 0.488654,1.69056l-0.731217 0.854327z"/>
    <path id="_431841040" class="fil33" d="M5.99159 4.22586l0.731217 -0.854327c0.000173228,0.0139331 0.000531496,0.0278228 0.000531496,0.0417953 0,0.224063 -0.0223937,0.442878 -0.0648307,0.654453l-0.666917 0.158079z"/>
    <path id="_431841160" class="fil20" d="M6.08812 5.36309l-0.0965276 -1.13723 0.488366 0.434909c-0.102224,0.250929 -0.23426,0.486516 -0.391839,0.702323z"/>
    <path id="_431841136" class="fil19" d="M6.47996 4.66077l-0.488366 -0.434909 0.666917 -0.158079c-0.0412047,0.20515 -0.101362,0.403433 -0.178551,0.592988z"/>
   </g>
   <path id="_431841400" class="fil34" d="M3.41333 0c0.942551,0 1.79589,0.382055 2.41358,0.999752 0.617697,0.617693 0.999752,1.47103 0.999752,2.41358 0,0.942551 -0.382055,1.79589 -0.999752,2.41358 -0.617693,0.617697 -1.47103,0.999752 -2.41358,0.999752 -0.942551,0 -1.79589,-0.382055 -2.41358,-0.999752 -0.617697,-0.617693 -0.999752,-1.47103 -0.999752,-2.41358 0,-0.942551 0.382055,-1.79589 0.999752,-2.41358 0.617693,-0.617697 1.47103,-0.999752 2.41358,-0.999752zm2.26731 1.14602c-0.580248,-0.580248 -1.38187,-0.939146 -2.26731,-0.939146 -0.885445,0 -1.68707,0.358898 -2.26731,0.939146 -0.580248,0.580248 -0.939146,1.38187 -0.939146,2.26731 0,0.885445 0.358898,1.68707 0.939146,2.26731 0.580248,0.580248 1.38187,0.939146 2.26731,0.939146 0.885445,0 1.68707,-0.358898 2.26731,-0.939146 0.580248,-0.580248 0.939146,-1.38187 0.939146,-2.26731 0,-0.885445 -0.358898,-1.68707 -0.939146,-2.26731z"/>
  </g>
  <path class="fil34" d="M4.82755 1.99803c-0.341484,-0.341484 -0.805909,-0.56002 -1.32119,-0.583614l0 1.95767 1.64513 -0.949823c-0.088874,-0.155705 -0.198039,-0.298331 -0.323941,-0.424232zm-1.50725 -0.583614c-0.515283,0.0235945 -0.979709,0.24213 -1.32119,0.583614 -0.361921,0.361921 -0.58578,0.861925 -0.58578,1.41422 0,0.360055 0.0951575,0.69787 0.261673,0.989697l1.6453 -0.949913 0 -2.03762zm-1.54606 3.14413c0.0671142,0.0957992 0.14239,0.185457 0.224862,0.267925 0.361917,0.361925 0.861925,0.58578 1.41422,0.58578 0.552295,0 1.0523,-0.223854 1.41422,-0.58578 0.0824724,-0.0824646 0.157752,-0.172122 0.224862,-0.267925l-1.63908 -0.946323 -1.63908 0.946323zm3.37741 -0.156598c0.166508,-0.291835 0.261669,-0.629646 0.261669,-0.989697 0,-0.294079 -0.0634724,-0.573331 -0.177461,-0.824803l-1.61351 0.931559 1.5293 0.882941z"/>
 </g>
</svg>
