<?xml version="1.0" encoding="UTF-8"?>
<!DOCTYPE svg PUBLIC "-//W3C//DTD SVG 1.1//EN" "http://www.w3.org/Graphics/SVG/1.1/DTD/svg11.dtd">
<!-- Creator: CorelDRAW -->
<svg xmlns="http://www.w3.org/2000/svg" xml:space="preserve" width="6.82666in" height="6.82666in" style="shape-rendering:geometricPrecision; text-rendering:geometricPrecision; image-rendering:optimizeQuality; fill-rule:evenodd; clip-rule:evenodd"
viewBox="0 0 6.82666 6.82666"
 xmlns:xlink="http://www.w3.org/1999/xlink">
 <defs>
  <style type="text/css">
   <![CDATA[
    .fil31 {fill:#8ED16F}
    .fil1 {fill:#94D477}
    .fil7 {fill:#97D47C}
    .fil16 {fill:#9CD681}
    .fil24 {fill:#A1D988}
    .fil8 {fill:#A3D989}
    .fil17 {fill:#A7DB8F}
    .fil15 {fill:#A9DC92}
    .fil0 {fill:#AAD496}
    .fil9 {fill:#ABDC94}
    .fil3 {fill:#B0DE9B}
    .fil13 {fill:#B3E09E}
    .fil32 {fill:#B5E1A0}
    .fil6 {fill:#B5E1A1}
    .fil2 {fill:#B6E1A3}
    .fil33 {fill:#B8E3A6}
    .fil21 {fill:#BAE3A7}
    .fil14 {fill:#BDE4AC}
    .fil11 {fill:#BEE4AD}
    .fil10 {fill:#C4E6B4}
    .fil19 {fill:#C5E7B5}
    .fil12 {fill:#C5E8B6}
    .fil5 {fill:#C7E8B8}
    .fil18 {fill:#C9E9BB}
    .fil29 {fill:#CCEABE}
    .fil4 {fill:#CCEBBF}
    .fil20 {fill:#CFECC2}
    .fil22 {fill:#D0ECC4}
    .fil28 {fill:#D1ECC5}
    .fil23 {fill:#D2ECC5}
    .fil26 {fill:#D4EDC9}
    .fil25 {fill:#D9EFCE}
    .fil27 {fill:#DBF0D1}
    .fil30 {fill:#DFF3D7}
    .fil34 {fill:#5D7056;fill-rule:nonzero}
   ]]>
  </style>
 </defs>
 <g id="Layer_x0020_1">
  <metadata id="CorelCorpID_0Corel-Layer"/>
  <g id="_440276680">
   <path id="_440280184" class="fil0" d="M3.41333 0.103323c1.82806,0 3.31001,1.48194 3.31001,3.31001 0,1.82806 -1.48195,3.31001 -3.31001,3.31001 -1.82806,0 -3.31001,-1.48195 -3.31001,-3.31001 0,-1.82806 1.48194,-3.31001 3.31001,-3.31001z"/>
   <g>
    <path id="_440280688" class="fil1" d="M0.84815 1.34934l-0.00884252 -0.0168189c0.00753937,-0.00931496 0.0149882,-0.0187087 0.0226299,-0.0279409l-0.0137874 0.0447598z"/>
    <path id="_440280784" class="fil2" d="M0.103453 3.42366l0.0734567 0.129008 -0.056126 0.202343c-0.0111732,-0.108965 -0.0169882,-0.219512 -0.0173307,-0.33135z"/>
    <path id="_440280592" class="fil3" d="M0.176909 3.55267l-0.0734567 -0.129008c-1.1811e-005,-0.00345276 -0.000129921,-0.00687402 -0.000129921,-0.0103268 0,-0.0520512 0.00135433,-0.103776 0.00373228,-0.15524l0.0698543 0.294575z"/>
    <path id="_440280568" class="fil4" d="M1.18749 5.86321l0.776169 -0.14402 -0.0895354 0.62498c-0.249311,-0.131209 -0.479969,-0.293087 -0.686634,-0.480961z"/>
    <path id="_440280760" class="fil5" d="M0.877673 5.54068l0.5695 -2.23289 0.516488 2.41141 -0.776169 0.14402c-0.11039,-0.100366 -0.213819,-0.208224 -0.309819,-0.322531z"/>
    <path id="_440280472" class="fil6" d="M1.44717 3.30779l-1.24756 -0.689248c0.019374,-0.0785906 0.0415472,-0.156067 0.0664213,-0.232331l1.25347 -0.278012 -0.0723386 1.19959z"/>
    <path id="_440280352" class="fil7" d="M0.839307 1.33252l0.00884252 0.0168189 -0.0253898 0.00372441c0.00548031,-0.00687795 0.0110157,-0.0137087 0.0165472,-0.0205433z"/>
    <path id="_440280160" class="fil8" d="M0.82276 1.35307l0.0253898 -0.00372441 -0.185134 0.22185c0.0503071,-0.0749488 0.103646,-0.147681 0.159744,-0.218126z"/>
    <path id="_440280400" class="fil9" d="M0.663016 1.57119l0.185134 -0.22185 0.671362 0.758854 -1.25347 0.278012c0.0951063,-0.291531 0.229413,-0.565339 0.396976,-0.815016z"/>
    <path id="_440280304" class="fil2" d="M0.176909 3.55267l0 0 -0.0698543 -0.294575c0.0101339,-0.219457 0.0417205,-0.433287 0.092563,-0.639551l1.24756 0.689248 -1.27026 0.244878z"/>
    <path id="_440279464" class="fil10" d="M0.206878 4.23787l1.2403 -0.930087 -0.5695 2.23289c-0.313378,-0.373138 -0.546059,-0.816303 -0.670795,-1.30281z"/>
    <path id="_440279776" class="fil11" d="M0.120783 3.75501l0.056126 -0.202343 1.27026 -0.244878 -1.2403 0.930087c-0.0401969,-0.156768 -0.069189,-0.318028 -0.0860945,-0.482866z"/>
    <polygon id="_440279368" class="fil12" points="2.78981,4.64194 1.44717,3.30779 2.33531,3.05072 "/>
    <polygon id="_440279680" class="fil13" points="2.33531,3.05072 1.51951,2.1082 2.08763,1.12896 "/>
    <polygon id="_440279968" class="fil14" points="1.44717,3.30779 1.51951,2.1082 2.33531,3.05072 "/>
    <path id="_440279272" class="fil15" d="M4.66962 2.62229l-0.661004 -1.18728 1.14086 -0.840126c0.0476457,0.0294134 0.0944646,0.0600236 0.140469,0.0917402l-0.620323 1.93567z"/>
    <path id="_440279344" class="fil16" d="M0.84815 1.34934l0.0137874 -0.0447598c0.166339,-0.201031 0.356004,-0.382031 0.564807,-0.538957l0.660882 0.363331 -1.23948 0.220386z"/>
    <polygon id="_440279488" class="fil17" points="1.51951,2.1082 1.51951,2.1082 0.84815,1.34934 2.08763,1.12896 "/>
    <path id="_440279320" class="fil7" d="M2.08763 1.12896l-0.660882 -0.363331c0.201016,-0.151067 0.419858,-0.279622 0.652697,-0.382287l0.00818504 0.745618z"/>
    <polygon id="_440279608" class="fil18" points="1.96366,5.71919 1.96366,5.71919 1.44717,3.30779 2.78981,4.64194 "/>
    <polygon id="_440278744" class="fil19" points="4.34948,4.3237 3.48189,3.73626 4.66962,2.62229 "/>
    <path id="_440278600" class="fil20" d="M1.87413 6.34417l0.0895354 -0.62498 0.602197 0.894457c-0.242602,-0.0641299 -0.474299,-0.155047 -0.691732,-0.269476z"/>
    <polygon id="_440279200" class="fil21" points="3.48189,3.73626 4.00862,1.435 4.66962,2.62229 "/>
    <path id="_440278864" class="fil7" d="M2.08763 1.12896l0 0 -0.00818504 -0.745618c0.115524,-0.0509331 0.234445,-0.095563 0.356433,-0.13324l1.08729 0.230035 -1.43554 0.648823z"/>
    <polygon id="_440278720" class="fil5" points="2.78981,4.64194 2.78981,4.64194 2.33531,3.05072 3.48189,3.73626 "/>
    <polygon id="_440279008" class="fil22" points="3.62645,6.66159 1.96366,5.71919 2.78981,4.64194 "/>
    <path id="_440279248" class="fil23" d="M2.56586 6.61365l-0.602197 -0.894457 1.66279 0.942402 -0.117575 0.0602756c-0.031748,0.000901575 -0.0635827,0.0014685 -0.0955472,0.0014685 -0.292965,0 -0.576965,-0.0382402 -0.847472,-0.109689z"/>
    <polygon id="_440279152" class="fil14" points="3.48189,3.73626 3.48189,3.73626 2.33531,3.05072 4.00862,1.435 "/>
    <polygon id="_440279128" class="fil3" points="2.33531,3.05072 2.33531,3.05072 2.08763,1.12896 4.00862,1.435 "/>
    <polygon id="_440278816" class="fil24" points="4.00862,1.435 2.08763,1.12896 3.52316,0.480134 "/>
    <path id="_440278768" class="fil25" d="M3.50888 6.72187l0.117575 -0.0602756 0.0260669 0.0530709c-0.0476142,0.00339764 -0.0954921,0.00583858 -0.143642,0.00720472z"/>
    <polygon id="_440278432" class="fil26" points="3.62645,6.66159 3.62645,6.66159 2.78981,4.64194 4.25655,6.29437 "/>
    <polygon id="_440277928" class="fil22" points="4.25655,6.29437 4.25655,6.29437 2.78981,4.64194 4.34948,4.3237 "/>
    <path id="_440278120" class="fil27" d="M3.65252 6.71467l-0.0260669 -0.0530709 0.630094 -0.367224 -0.0383661 0.330217c-0.183008,0.0457205 -0.372012,0.076248 -0.565661,0.0900787z"/>
    <polygon id="_440278384" class="fil18" points="2.78981,4.64194 3.48189,3.73626 4.34948,4.3237 "/>
    <path id="_440278312" class="fil16" d="M4.00862 1.435l0 0 -0.485457 -0.95487 1.35441 -0.0358898c0.0931969,0.0460512 0.183917,0.0963228 0.271902,0.150634l-1.14086 0.840126z"/>
    <polygon id="_440277760" class="fil23" points="4.25655,6.29437 4.34948,4.3237 5.32031,4.96022 "/>
    <path id="_440278360" class="fil1" d="M3.52316 0.480134l0 0 -1.08729 -0.230035c0.0435984,-0.0134567 0.087622,-0.0259409 0.131972,-0.037626l2.17686 0.169772c0.0448189,0.0197165 0.0891142,0.0403819 0.132866,0.062l-1.35441 0.0358898z"/>
    <path id="_440277880" class="fil28" d="M5.77472 5.73249l-0.454413 -0.772272 0.67124 -0.734358 0.0965157 1.13731c-0.0954449,0.130685 -0.200193,0.254126 -0.313343,0.369323z"/>
    <polygon id="_440277952" class="fil29" points="5.32031,4.96022 5.32031,4.96022 4.34948,4.3237 5.99155,4.22586 "/>
    <path id="_440278264" class="fil2" d="M5.99155 4.22586l-1.32193 -1.60357 1.41272 -1.16665c0.053563,0.0729016 0.104232,0.148051 0.151799,0.225327l-0.242591 2.54489z"/>
    <path id="_440277064" class="fil17" d="M4.66962 2.62229l0.620323 -1.93567c0.305122,0.210398 0.573138,0.470661 0.792398,0.769024l-1.41272 1.16665z"/>
    <path id="_440277400" class="fil25" d="M4.96162 6.33938l-0.705071 -0.0450079 1.06376 -1.33415 0.454413 0.772272c-0.237303,0.241559 -0.511323,0.44687 -0.813106,0.60689z"/>
    <polygon id="_440277472" class="fil10" points="4.34948,4.3237 4.66962,2.62229 5.99155,4.22586 "/>
    <path id="_440277040" class="fil30" d="M4.21818 6.62459l0.0383661 -0.330217 0.705071 0.0450079c-0.232736,0.123394 -0.481902,0.219866 -0.743437,0.285209z"/>
    <path id="_440277376" class="fil31" d="M3.91741 0.141461l-1.12356 0.0199921c0.200701,-0.0380039 0.407724,-0.0581299 0.61948,-0.0581299 0.171378,0 0.339717,0.0130236 0.504075,0.0381378z"/>
    <path id="_440277640" class="fil1" d="M4.74471 0.382244l-2.17686 -0.169772c0.0743386,-0.0195827 0.149724,-0.0365591 0.226004,-0.0510197l1.12356 -0.0199921c0.289854,0.0443583 0.567295,0.126409 0.827303,0.240783z"/>
    <path id="_440277520" class="fil32" d="M5.99155 4.22586l0.242591 -2.54489c0.303323,0.492846 0.480976,1.07119 0.488665,1.69052l-0.731256 0.854366z"/>
    <path id="_440277184" class="fil33" d="M5.99155 4.22586l0.731256 -0.854366c0.000173228,0.0139488 0.000531496,0.0278504 0.000531496,0.0418386 0,0.224063 -0.0223937,0.442878 -0.0648268,0.654449l-0.666961 0.158079z"/>
    <path id="_440277328" class="fil20" d="M6.08807 5.36317l-0.0965157 -1.13731 0.488394 0.434945c-0.102236,0.250945 -0.234283,0.486547 -0.391878,0.702362z"/>
    <path id="_440277136" class="fil19" d="M6.47994 4.6608l-0.488394 -0.434945 0.666961 -0.158079c-0.0412087,0.205161 -0.10137,0.403457 -0.178567,0.593024z"/>
   </g>
   <path id="_440276896" class="fil34" d="M3.41333 0c0.942551,0 1.79589,0.382055 2.41358,0.999752 0.617697,0.617693 0.999752,1.47103 0.999752,2.41358 0,0.942551 -0.382055,1.79589 -0.999752,2.41358 -0.617693,0.617697 -1.47103,0.999752 -2.41358,0.999752 -0.942551,0 -1.79589,-0.382055 -2.41358,-0.999752 -0.617697,-0.617693 -0.999752,-1.47103 -0.999752,-2.41358 0,-0.942551 0.382055,-1.79589 0.999752,-2.41358 0.617693,-0.617697 1.47103,-0.999752 2.41358,-0.999752zm2.26731 1.14602c-0.580248,-0.580248 -1.38187,-0.939146 -2.26731,-0.939146 -0.885445,0 -1.68707,0.358898 -2.26731,0.939146 -0.580248,0.580248 -0.939146,1.38187 -0.939146,2.26731 0,0.885445 0.358898,1.68707 0.939146,2.26731 0.580248,0.580248 1.38187,0.939146 2.26731,0.939146 0.885445,0 1.68707,-0.358898 2.26731,-0.939146 0.580248,-0.580248 0.939146,-1.38187 0.939146,-2.26731 0,-0.885445 -0.358898,-1.68707 -0.939146,-2.26731z"/>
  </g>
  <path class="fil34" d="M4.82755 1.99911c-0.351488,-0.351492 -0.83322,-0.57274 -1.3666,-0.585205l0 0.381087c0.42815,0.0123701 0.814665,0.190949 1.09722,0.4735 0.0879449,0.0879449 0.165799,0.185969 0.231724,0.292173l0.330098 -0.190579c-0.0827402,-0.135067 -0.181035,-0.259575 -0.292441,-0.370976zm-1.46184 -0.585205c-0.533378,0.0124646 -1.01511,0.233713 -1.3666,0.585205 -0.111406,0.111402 -0.209709,0.235906 -0.292441,0.370976l0.330098 0.190579c0.0659252,-0.106209 0.14378,-0.204228 0.231724,-0.292173 0.282551,-0.282551 0.669067,-0.46113 1.09722,-0.4735l0 -0.381087zm-1.70673 1.03835c-0.156575,0.285213 -0.24565,0.612732 -0.24565,0.961071 0,0.346457 0.0880984,0.672319 0.243102,0.956441l0.33011 -0.190587c-0.122654,-0.228024 -0.192268,-0.488811 -0.192268,-0.765854 0,-0.278929 0.0705472,-0.54139 0.194764,-0.770512l-0.330059 -0.190559zm0.0449173 1.99982c0.0833031,0.136807 0.182567,0.262831 0.295213,0.375472 0.351488,0.351492 0.83322,0.57274 1.3666,0.585205l0 -0.381087c-0.42815,-0.0123701 -0.814665,-0.190949 -1.09722,-0.4735 -0.089185,-0.089185 -0.16798,-0.18874 -0.234496,-0.296673l-0.330098 0.190583zm1.75706 0.960677c0.533378,-0.0124646 1.01511,-0.233713 1.3666,-0.585205 0.112646,-0.112642 0.211909,-0.238661 0.295213,-0.375472l-0.330098 -0.190583c-0.0665079,0.107937 -0.145311,0.207488 -0.234496,0.296673 -0.282551,0.282551 -0.669067,0.46113 -1.09722,0.4735l0 0.381087zm1.70928 -1.04298c0.155,-0.284122 0.243102,-0.609988 0.243102,-0.956441 0,-0.348339 -0.0890709,-0.675862 -0.24565,-0.961071l-0.330059 0.190559c0.124217,0.229122 0.194764,0.491583 0.194764,0.770512 0,0.277043 -0.0696142,0.537831 -0.192268,0.765854l0.33011 0.190587zm-1.70928 -1.85643c0.229902,0.0119724 0.437012,0.110106 0.589638,0.262724 0.0437283,0.0437323 0.0829803,0.0919409 0.11702,0.143874l0.457228 -0.263984c-0.0575,-0.0917874 -0.12513,-0.176583 -0.201343,-0.252791 -0.248067,-0.248071 -0.586976,-0.405299 -0.962543,-0.417602l0 0.52778zm0.75448 0.488693c0.0633622,0.123307 0.099126,0.26313 0.099126,0.411291 0,0.14628 -0.0348701,0.284421 -0.0967283,0.406575l0.457228 0.26398c0.106484,-0.199953 0.166846,-0.428201 0.166846,-0.670555 0,-0.24424 -0.061311,-0.474154 -0.169343,-0.675213l-0.45713 0.263921zm-0.0449409 0.90024c-0.0346929,0.0536299 -0.0749291,0.103339 -0.119902,0.148311 -0.152626,0.152618 -0.359736,0.250752 -0.589638,0.262724l0 0.52778c0.375567,-0.0123031 0.714476,-0.169531 0.962543,-0.417602 0.0774528,-0.0774488 0.146047,-0.163764 0.204138,-0.25728l-0.457142 -0.263933zm-0.804783 0.411035c-0.229902,-0.0119724 -0.437012,-0.110106 -0.589638,-0.262724 -0.0449724,-0.0449724 -0.0852008,-0.094685 -0.119902,-0.148311l-0.457142 0.263933c0.0580984,0.0935157 0.126685,0.179831 0.204138,0.25728 0.248067,0.248071 0.586976,0.405299 0.962543,0.417602l0 -0.52778zm-0.756878 -0.493409c-0.0618622,-0.122154 -0.0967283,-0.260295 -0.0967283,-0.406575 0,-0.148165 0.0357638,-0.287984 0.099126,-0.411291l-0.45713 -0.263921c-0.108031,0.201063 -0.169343,0.430972 -0.169343,0.675213 0,0.242354 0.0603661,0.470606 0.166846,0.670555l0.457228 -0.26398zm0.0502205 -0.899961c0.0340394,-0.0519331 0.0732913,-0.100142 0.11702,-0.143874 0.152626,-0.152618 0.359736,-0.250752 0.589638,-0.262724l0 -0.52778c-0.375567,0.0123031 -0.714476,0.169531 -0.962543,0.417602 -0.0762126,0.0762126 -0.143846,0.161 -0.201343,0.252791l0.457228 0.263984zm1.25686 -0.00919685c-0.118126,-0.118126 -0.277657,-0.194854 -0.454961,-0.206587l0 0.623772 0.541362 -0.312555c-0.0254488,-0.0376024 -0.0544055,-0.0726339 -0.0864016,-0.10463zm-0.550205 -0.206587c-0.177303,0.0117323 -0.336835,0.0884606 -0.454961,0.206587 -0.0319921,0.0319921 -0.0609567,0.0670315 -0.0864055,0.10463l0.541366 0.312555 0 -0.623772zm-0.589248 0.393276c-0.0472874,0.0951535 -0.073878,0.202417 -0.073878,0.315894 0,0.111591 0.0257244,0.217173 0.0715472,0.311138l0.544193 -0.314189 -0.541862 -0.312843zm0.044937 0.709449c0.0261575,0.0392677 0.0561142,0.0757913 0.0893504,0.109028 0.118126,0.118126 0.277657,0.194854 0.454961,0.206587l0 -0.629874 -0.544311 0.31426zm0.639555 0.315614c0.177303,-0.0117323 0.336835,-0.0884606 0.454961,-0.206587 0.0332402,-0.0332362 0.0631929,-0.0697598 0.0893465,-0.109028l-0.544307 -0.31426 0 0.629874zm0.591579 -0.398031c0.0458228,-0.0939685 0.0715472,-0.199547 0.0715472,-0.311138 0,-0.113472 -0.0265866,-0.220736 -0.073874,-0.315894l-0.541866 0.312846 0.544193 0.314185z"/>
 </g>
</svg>
