<?xml version="1.0" encoding="UTF-8"?>
<!DOCTYPE svg PUBLIC "-//W3C//DTD SVG 1.1//EN" "http://www.w3.org/Graphics/SVG/1.1/DTD/svg11.dtd">
<!-- Creator: CorelDRAW -->
<svg xmlns="http://www.w3.org/2000/svg" xml:space="preserve" width="6.82666in" height="6.82666in" style="shape-rendering:geometricPrecision; text-rendering:geometricPrecision; image-rendering:optimizeQuality; fill-rule:evenodd; clip-rule:evenodd"
viewBox="0 0 6.82666 6.82666"
 xmlns:xlink="http://www.w3.org/1999/xlink">
 <defs>
  <style type="text/css">
   <![CDATA[
    .fil30 {fill:#79C7C9}
    .fil1 {fill:#81CACC}
    .fil7 {fill:#86CCCD}
    .fil15 {fill:#8ACDD0}
    .fil23 {fill:#90D1D3}
    .fil8 {fill:#92D1D3}
    .fil16 {fill:#97D4D5}
    .fil14 {fill:#9AD4D6}
    .fil9 {fill:#9BD4D7}
    .fil3 {fill:#A2D7DA}
    .fil0 {fill:#A5DADB}
    .fil31 {fill:#A7DADC}
    .fil6 {fill:#A8DBDC}
    .fil2 {fill:#AADBDD}
    .fil32 {fill:#ADDCDD}
    .fil20 {fill:#ADDCDE}
    .fil13 {fill:#B2DEE0}
    .fil11 {fill:#B3DFE0}
    .fil10 {fill:#B9E2E3}
    .fil18 {fill:#BBE2E4}
    .fil12 {fill:#BCE3E4}
    .fil5 {fill:#BDE4E4}
    .fil17 {fill:#C0E4E5}
    .fil28 {fill:#C3E5E7}
    .fil4 {fill:#C4E6E7}
    .fil19 {fill:#C6E7E8}
    .fil21 {fill:#C8E7E9}
    .fil27 {fill:#C9E8E9}
    .fil22 {fill:#CAE9EA}
    .fil25 {fill:#CCEAEB}
    .fil24 {fill:#D2ECEC}
    .fil26 {fill:#D4EDEE}
    .fil29 {fill:#DAEFF0}
    .fil33 {fill:#556D6E;fill-rule:nonzero}
   ]]>
  </style>
 </defs>
 <g id="Layer_x0020_1">
  <metadata id="CorelCorpID_0Corel-Layer"/>
  <g id="_440281192">
   <path id="_279852880" class="fil0" d="M3.41333 0.103323c1.82806,0 3.31001,1.48194 3.31001,3.31001 0,1.82806 -1.48195,3.31001 -3.31001,3.31001 -1.82806,0 -3.31001,-1.48195 -3.31001,-3.31001 0,-1.82806 1.48194,-3.31001 3.31001,-3.31001z"/>
   <g>
    <path id="_279853192" class="fil1" d="M0.848996 1.35054l-0.00955512 -0.0181772c0.00812205,-0.0100315 0.0161811,-0.0201142 0.0244173,-0.0300472l-0.0148622 0.0482244z"/>
    <path id="_279851896" class="fil2" d="M0.103449 3.42324l0.0743543 0.130587 -0.0566614 0.204283c-0.0113976,-0.11011 -0.0173622,-0.221823 -0.0176929,-0.33487z"/>
    <path id="_279851776" class="fil3" d="M0.177803 3.55383l-0.0743543 -0.130587c-1.1811e-005,-0.00331102 -0.000125984,-0.00659843 -0.000125984,-0.00991339 0,-0.0528071 0.00137402,-0.105287 0.0038189,-0.157488l0.0706614 0.297988z"/>
    <path id="_279852376" class="fil4" d="M1.1887 5.86429l0.775917 -0.143961 -0.0894724 0.624378c-0.24922,-0.131047 -0.479807,-0.292748 -0.686445,-0.480417z"/>
    <path id="_279852232" class="fil5" d="M0.878551 5.54172l0.5695 -2.23277 0.516563 2.41138 -0.775917 0.143961c-0.110504,-0.100374 -0.214043,-0.20824 -0.310146,-0.322571z"/>
    <path id="_279851680" class="fil6" d="M1.44805 3.30895l-1.24858 -0.689815c0.0192835,-0.0782835 0.0413425,-0.155461 0.0660827,-0.231445l1.25487 -0.278315 -0.072378 1.19957z"/>
    <path id="_279852352" class="fil7" d="M0.839441 1.33236l0.00955512 0.0181772 -0.027437 0.00402362c0.00591732,-0.00743701 0.0119016,-0.014815 0.0178819,-0.0222008z"/>
    <path id="_279852328" class="fil8" d="M0.821559 1.35456l0.027437 -0.00402362 -0.19289 0.231154c0.0519961,-0.0781063 0.107193,-0.153882 0.165453,-0.22713z"/>
    <path id="_279851824" class="fil9" d="M0.656106 1.58169l0.19289 -0.231154 0.671433 0.758843 -1.25487 0.278315c0.0938268,-0.288016 0.225945,-0.558717 0.390551,-0.806004z"/>
    <path id="_279852280" class="fil2" d="M0.177803 3.55383l0 0 -0.0706614 -0.297988c0.0102362,-0.218461 0.041748,-0.431323 0.0923307,-0.636705l1.24858 0.689815 -1.27025 0.244878z"/>
    <path id="_279852136" class="fil10" d="M0.207256 4.23942l1.2408 -0.930469 -0.5695 2.23277c-0.313488,-0.372961 -0.546346,-0.815949 -0.671295,-1.3023z"/>
    <path id="_279851944" class="fil11" d="M0.121142 3.75811l0.0566614 -0.204283 1.27025 -0.244878 -1.2408 0.930469c-0.0401457,-0.156264 -0.0691102,-0.317012 -0.0861142,-0.481307z"/>
    <polygon id="_279851416" class="fil12" points="2.79068,4.64309 1.44805,3.30895 2.33618,3.05189 "/>
    <polygon id="_279851296" class="fil0" points="2.33618,3.05189 1.52043,2.10938 2.08858,1.13015 "/>
    <polygon id="_279851224" class="fil13" points="1.44805,3.30895 1.52043,2.10938 2.33618,3.05189 "/>
    <path id="_279851056" class="fil14" d="M4.67046 2.62346l-0.661 -1.18727 1.14137 -0.840472c0.0475315,0.029374 0.0942441,0.059937 0.140138,0.0916063l-0.620504 1.93613z"/>
    <path id="_279851152" class="fil15" d="M0.848996 1.35054l0.0148622 -0.0482244c0.165748,-0.199949 0.354567,-0.380055 0.562374,-0.536295l0.662346 0.364134 -1.23958 0.220386z"/>
    <polygon id="_279851536" class="fil16" points="1.52043,2.10938 1.52043,2.10938 0.848996,1.35054 2.08858,1.13015 "/>
    <path id="_279850960" class="fil7" d="M2.08858 1.13015l-0.662346 -0.364134c0.201398,-0.151413 0.420697,-0.280228 0.654047,-0.383043l0.00829921 0.747177z"/>
    <polygon id="_279851176" class="fil17" points="1.96461,5.72033 1.96461,5.72033 1.44805,3.30895 2.79068,4.64309 "/>
    <polygon id="_279851512" class="fil18" points="4.35036,4.32486 3.48275,3.73742 4.67046,2.62346 "/>
    <path id="_279851584" class="fil19" d="M1.87514 6.34471l0.0894724 -0.624378 0.601437 0.89337c-0.242295,-0.0640354 -0.473713,-0.154787 -0.690909,-0.268992z"/>
    <polygon id="_279850432" class="fil20" points="3.48275,3.73742 4.00946,1.4362 4.67046,2.62346 "/>
    <path id="_279850888" class="fil7" d="M2.08858 1.13015l0 0 -0.00829921 -0.747177c0.114626,-0.0504961 0.232583,-0.0948189 0.353571,-0.132272l1.09017 0.230638 -1.43544 0.648811z"/>
    <polygon id="_279850312" class="fil5" points="2.79068,4.64309 2.79068,4.64309 2.33618,3.05189 3.48275,3.73742 "/>
    <polygon id="_440270440" class="fil21" points="3.6273,6.66272 1.96461,5.72033 2.79068,4.64309 "/>
    <path id="_440282320" class="fil22" d="M2.56605 6.6137l-0.601437 -0.89337 1.66269 0.94239 -0.115126 0.0590276c-0.0328425,0.000964567 -0.0657717,0.00159055 -0.0988465,0.00159055 -0.292894,0 -0.576827,-0.0382244 -0.84728,-0.109638z"/>
    <polygon id="_440273416" class="fil13" points="3.48275,3.73742 3.48275,3.73742 2.33618,3.05189 4.00946,1.4362 "/>
    <polygon id="_440268544" class="fil3" points="2.33618,3.05189 2.33618,3.05189 2.08858,1.13015 4.00946,1.4362 "/>
    <polygon id="_440298088" class="fil23" points="4.00946,1.4362 2.08858,1.13015 3.52402,0.481339 "/>
    <path id="_440291632" class="fil24" d="M3.51218 6.72175l0.115126 -0.0590276 0.0255039 0.0519291c-0.046622,0.00333071 -0.0934961,0.00571654 -0.14063,0.00709843z"/>
    <polygon id="_440283688" class="fil25" points="3.6273,6.66272 3.6273,6.66272 2.79068,4.64309 4.25735,6.2955 "/>
    <polygon id="_440282416" class="fil21" points="4.25735,6.2955 4.25735,6.2955 2.79068,4.64309 4.35036,4.32486 "/>
    <path id="_440283040" class="fil26" d="M3.65281 6.71465l-0.0255039 -0.0519291 0.630047 -0.367217 -0.0382047 0.32885c-0.18322,0.0458268 -0.372453,0.0764291 -0.566339,0.0902953z"/>
    <polygon id="_440283064" class="fil17" points="2.79068,4.64309 3.48275,3.73742 4.35036,4.32486 "/>
    <path id="_440282632" class="fil15" d="M4.00946 1.4362l0 0 -0.485449 -0.954858 1.3559 -0.0359291c0.0928543,0.0459724 0.183244,0.0961417 0.270913,0.150315l-1.14137 0.840472z"/>
    <polygon id="_440282392" class="fil22" points="4.25735,6.2955 4.35036,4.32486 5.3211,4.96137 "/>
    <path id="_440282488" class="fil1" d="M3.52402 0.481339l0 0 -1.09017 -0.230638c0.043185,-0.0133583 0.0867992,-0.0257165 0.130717,-0.0373386l2.18331 0.170264c0.0445433,0.0196496 0.0885551,0.0402559 0.132043,0.0617835l-1.3559 0.0359291z"/>
    <path id="_440282512" class="fil27" d="M5.77484 5.73237l-0.453736 -0.771004 0.671315 -0.73435 0.0963543 1.13518c-0.0956063,0.131 -0.200547,0.254724 -0.313933,0.370173z"/>
    <polygon id="_440282704" class="fil28" points="5.3211,4.96137 5.3211,4.96137 4.35036,4.32486 5.99242,4.22702 "/>
    <path id="_440282800" class="fil2" d="M5.99242 4.22702l-1.32195 -1.60355 1.41273 -1.16665c0.0535512,0.0729528 0.104217,0.148142 0.151768,0.225465l-0.242543 2.54474z"/>
    <path id="_440282344" class="fil16" d="M4.67046 2.62346l0.620504 -1.93613c0.305094,0.210547 0.573051,0.470965 0.792224,0.76948l-1.41273 1.16665z"/>
    <path id="_440282272" class="fil24" d="M4.9598 6.34034l-0.702445 -0.0448386 1.06375 -1.33414 0.453736 0.771004c-0.237807,0.242094 -0.512496,0.447787 -0.815043,0.607972z"/>
    <polygon id="_440281912" class="fil10" points="4.35036,4.32486 4.67046,2.62346 5.99242,4.22702 "/>
    <path id="_440282128" class="fil29" d="M4.21915 6.62435l0.0382047 -0.32885 0.702445 0.0448386c-0.231933,0.122783 -0.480146,0.218843 -0.74065,0.284012z"/>
    <path id="_440281792" class="fil30" d="M3.92407 0.142563l-1.13726 0.0202362c0.202898,-0.038874 0.412287,-0.0594764 0.62652,-0.0594764 0.173705,0 0.344256,0.0134567 0.510736,0.0392402z"/>
    <path id="_440281624" class="fil1" d="M4.74787 0.383626l-2.18331 -0.170264c0.0731181,-0.0193425 0.147244,-0.0361732 0.222244,-0.050563l1.13726 -0.0202362c0.288614,0.0447717 0.564886,0.126846 0.823807,0.241063z"/>
    <path id="_440281720" class="fil31" d="M5.99242 4.22702l0.242543 -2.54474c0.303177,0.493126 0.480571,1.07176 0.487874,1.69135l-0.730417 0.85339z"/>
    <path id="_440281960" class="fil32" d="M5.99242 4.22702l0.730417 -0.85339c0.000153543,0.0132362 0.000503937,0.0264291 0.000503937,0.0397047 0,0.224563 -0.0224803,0.443858 -0.0651024,0.65587l-0.665819 0.157815z"/>
    <path id="_440281696" class="fil19" d="M6.08877 5.3622l-0.0963543 -1.13518 0.487413 0.434063c-0.102067,0.250465 -0.233831,0.485642 -0.391059,0.701118z"/>
    <path id="_440282032" class="fil18" d="M6.47983 4.66108l-0.487413 -0.434063 0.665819 -0.157815c-0.0412244,0.204756 -0.101335,0.402665 -0.178406,0.591878z"/>
   </g>
   <path id="_440281480" class="fil33" d="M3.41333 0c0.942551,0 1.79589,0.382055 2.41358,0.999752 0.617697,0.617693 0.999752,1.47103 0.999752,2.41358 0,0.942551 -0.382055,1.79589 -0.999752,2.41358 -0.617693,0.617697 -1.47103,0.999752 -2.41358,0.999752 -0.942551,0 -1.79589,-0.382055 -2.41358,-0.999752 -0.617697,-0.617693 -0.999752,-1.47103 -0.999752,-2.41358 0,-0.942551 0.382055,-1.79589 0.999752,-2.41358 0.617693,-0.617697 1.47103,-0.999752 2.41358,-0.999752zm2.26731 1.14602c-0.580248,-0.580248 -1.38187,-0.939146 -2.26731,-0.939146 -0.885445,0 -1.68707,0.358898 -2.26731,0.939146 -0.580248,0.580248 -0.939146,1.38187 -0.939146,2.26731 0,0.885445 0.358898,1.68707 0.939146,2.26731 0.580248,0.580248 1.38187,0.939146 2.26731,0.939146 0.885445,0 1.68707,-0.358898 2.26731,-0.939146 0.580248,-0.580248 0.939146,-1.38187 0.939146,-2.26731 0,-0.885445 -0.358898,-1.68707 -0.939146,-2.26731z"/>
  </g>
  <path class="fil33" d="M5.41333 2.94776l-1.95418 -1.4198 0 0.487004c0.0641339,0.00987795 0.121543,0.0401535 0.165394,0.084 0.0540591,0.0540591 0.0874961,0.128736 0.0874961,0.211213 0,0.0253583 -0.00316929,0.0499764 -0.00911811,0.0734882l0.342185 0.248614 0.338606 0.246008c0.0447598,-0.026748 0.0970906,-0.0421299 0.153016,-0.0421299 0.0824764,0 0.157154,0.0334409 0.211213,0.0875 0.0540591,0.0540591 0.0874961,0.128732 0.0874961,0.211209 0,0.0794921 -0.0310669,0.151744 -0.0817205,0.205268l0.532122 0 0.127492 -0.39237zm-2.04582 -0.932799l0 -0.487004 -1.95418 1.4198 0.127492 0.39237 0.488122 0c-0.0506535,-0.0535236 -0.0817205,-0.125776 -0.0817205,-0.205268 0,-0.0824764 0.033437,-0.15715 0.0874961,-0.211209 0.0540591,-0.0540591 0.128736,-0.0875 0.211213,-0.0875 0.065815,0 0.126665,0.0212992 0.176035,0.057374l0.359587 -0.261252 0.342185 -0.248614c-0.00594882,-0.0235118 -0.00911811,-0.0481299 -0.00911811,-0.0734882 0,-0.0824764 0.033437,-0.157154 0.0874961,-0.211213 0.0438504,-0.0438465 0.101256,-0.074122 0.165394,-0.084zm-0.904594 1.32517l0.414622 0 -0.00935039 -0.0287677 -0.0205472 -0.063252 0.0538386 -0.0391181 0.229083 -0.166437 0.229079 -0.166433 0.00787008 -0.00572047 0 -0.265016c-0.0551575,-0.00849606 -0.105335,-0.0320787 -0.146197,-0.0664094l-0.332378 0.241488 -0.359205 0.26098 -1.9685e-005 -5.90551e-005c0.00968504,0.0294094 0.0149291,0.0608346 0.0149291,0.0934764 0,0.0794921 -0.0310709,0.151744 -0.0817244,0.205268zm0.606957 0l0.297638 0 0 -0.243524 -0.129571 0.0941378 -0.175236 0.127319 0.00716929 0.0220669zm0.389276 -0.734744l0 0.265016 0.00787008 0.00572047 0.229079 0.166433 0.229083 0.166437 0.0538386 0.0391181 -0.0205472 0.063252 -0.00935039 0.0287677 0.370618 0c-0.0506535,-0.0535236 -0.0817205,-0.125776 -0.0817205,-0.205268 0,-0.0420906 0.0087126,-0.0821457 0.0244291,-0.118472l-0.324724 -0.235925 -0.332378 -0.241488c-0.0408622,0.0343307 -0.0910354,0.0579094 -0.146197,0.0664094zm0 0.49122l0 0.243524 0.297638 0 0.00716929 -0.0220669 -0.175236 -0.127319 -0.129571 -0.0941378zm-1.13158 -0.043378c-0.0208819,-0.0208858 -0.0497441,-0.0338071 -0.0816339,-0.0338071 -0.0318898,0 -0.0607559,0.0129213 -0.0816378,0.0338071 -0.0208858,0.0208819 -0.0338031,0.0497441 -0.0338031,0.0816339 0,0.0318858 0.0129173,0.060752 0.0338031,0.0816378 0.0208819,0.0208858 0.049748,0.0338031 0.0816378,0.0338031 0.0318898,0 0.060752,-0.0129173 0.0816339,-0.0338031 0.0208858,-0.0208858 0.0338031,-0.049752 0.0338031,-0.0816378 0,-0.0318898 -0.0129173,-0.060752 -0.0338031,-0.0816339zm2.2908 0c-0.0208858,-0.0208858 -0.049748,-0.0338071 -0.0816378,-0.0338071 -0.0318898,0 -0.060752,0.0129213 -0.0816339,0.0338071 -0.0208858,0.0208819 -0.0338071,0.0497441 -0.0338071,0.0816339 0,0.0318858 0.0129213,0.060752 0.0338071,0.0816378 0.0208819,0.0208858 0.0497441,0.0338031 0.0816339,0.0338031 0.0318898,0 0.060752,-0.0129173 0.0816378,-0.0338031 0.0208858,-0.0208858 0.0338031,-0.049752 0.0338031,-0.0816378 0,-0.0318898 -0.0129173,-0.060752 -0.0338031,-0.0816339zm-1.1234 -0.824693c-0.0208858,-0.0208819 -0.049748,-0.0338031 -0.0816378,-0.0338031 -0.0318898,0 -0.060752,0.0129213 -0.0816378,0.0338031 -0.0208819,0.0208858 -0.0338031,0.049748 -0.0338031,0.0816378 0,0.0318858 0.0129213,0.060752 0.0338031,0.0816378 0.0208858,0.0208819 0.049748,0.0338031 0.0816378,0.0338031 0.0318898,0 0.060752,-0.0129213 0.0816378,-0.0338031 0.0208819,-0.0208858 0.0338031,-0.049752 0.0338031,-0.0816378 0,-0.0318898 -0.0129213,-0.060752 -0.0338031,-0.0816378zm0.665236 2.15154c-0.0208819,-0.0208858 -0.049748,-0.0338031 -0.0816339,-0.0338031 -0.0318898,0 -0.0607559,0.0129173 -0.0816378,0.0338031 -0.0208858,0.0208819 -0.0338031,0.049748 -0.0338031,0.0816378 0,0.0318858 0.0129173,0.060752 0.0338031,0.0816339 0.0208819,0.0208858 0.049748,0.0338031 0.0816378,0.0338031 0.0318858,0 0.060752,-0.0129173 0.0816339,-0.0338031 0.0208858,-0.0208819 0.0338031,-0.049748 0.0338031,-0.0816339 0,-0.0318898 -0.0129173,-0.0607559 -0.0338031,-0.0816378zm-1.33047 0c-0.0208858,-0.0208858 -0.049748,-0.0338031 -0.0816378,-0.0338031 -0.0318898,0 -0.060752,0.0129173 -0.0816339,0.0338031 -0.0208858,0.0208819 -0.0338071,0.049748 -0.0338071,0.0816378 0,0.0318858 0.0129213,0.060752 0.0338071,0.0816339 0.0208819,0.0208858 0.0497441,0.0338031 0.0816339,0.0338031 0.0318898,0 0.060752,-0.0129173 0.0816378,-0.0338031 0.0208858,-0.0208819 0.0338031,-0.049748 0.0338031,-0.0816339 0,-0.0318898 -0.0129173,-0.0607559 -0.0338031,-0.0816378zm0.800272 -1.8643c0.00142126,-0.00149606 0.0028189,-0.00300394 0.00420866,-0.0045315 -0.00138976,0.00152756 -0.00279134,0.00303543 -0.00420866,0.0045315zm-0.437555 -0.0045315c0.00138976,0.00152756 0.0027874,0.00303937 0.00420866,0.0045315 -0.00142126,-0.00149213 -0.00282283,-0.00300787 -0.00420866,-0.0045315zm-0.709591 0.441705c-0.00132283,-0.00172441 -0.00266535,-0.00342913 -0.00401969,-0.00511811 0.00135433,0.00168898 0.00269685,0.00339764 0.00401969,0.00511811zm-0.912264 0.478819l0.606602 1.86693 1.19031 0 0 -0.721524 -0.34385 0c-0.0151299,0.0360591 -0.0371339,0.0685315 -0.0643543,0.095752 -0.0540591,0.0540591 -0.128736,0.0875 -0.211213,0.0875 -0.0824724,0 -0.15715,-0.0334409 -0.211209,-0.0875 -0.0540591,-0.0540591 -0.0875,-0.12874 -0.0875,-0.211209 0,-0.0784173 0.0302283,-0.149776 0.0796614,-0.203071l-0.000122047 0.000129921 -0.137941 -0.424543 -0.130299 -0.401024c-0.00488976,0.00023622 -0.00980709,0.000362205 -0.014752,0.000362205 -0.0111496,0 -0.0221496,-0.00061811 -0.0329803,-0.00180315l-0.642358 0zm1.47335 1.07141c0.000311024,-0.00223228 0.000598425,-0.00447638 0.000858268,-0.00672835 -0.000259843,0.00225197 -0.000547244,0.00449606 -0.000858268,0.00672835zm0.00223228 -0.0609882c-0.00015748,-0.00240551 -0.000338583,-0.00480315 -0.000551181,-0.00719291 0.000212598,0.00238976 0.000393701,0.0047874 0.000551181,0.00719291zm-0.00376772 -0.0317756c-0.000287402,-0.00167323 -0.000590551,-0.00333465 -0.000909449,-0.00499606 0.000318898,0.00166142 0.000622047,0.00332283 0.000909449,0.00499606zm-0.00333858 -0.0165079l0.328441 0 0 -0.480587 -0.237339 0 -0.0663937 0 -0.0205866 -0.0633543 -0.0875 -0.269303 -0.0483819 -0.148894 -0.45476 0 0.112394 0.345909 0.126921 0.390618c0.0182126,-0.0034685 0.0370079,-0.00529134 0.0562283,-0.00529134 0.0824764,0 0.157154,0.0334409 0.211213,0.0875 0.0387677,0.0387717 0.0669331,0.0881457 0.0797638,0.143402zm0.328441 -0.663854l0 -0.298283 -0.267862 0 0.0300039 0.0923386 0.0669134 0.205945 0.170945 0zm-1.08887 -0.298256l0.000283465 -2.75591e-005 -1.1811e-005 0 -0.000271654 2.75591e-005zm1.18051 1.8669l1.19031 0 0.606602 -1.86693 -0.686358 0 -0.00337795 0.000350394 -0.130654 0.402114 -0.137941 0.424543c0.0493622,0.0532835 0.0795433,0.124591 0.0795433,0.202941 0,0.0824685 -0.0334409,0.15715 -0.0875,0.211209 -0.0540591,0.0540591 -0.128736,0.0875 -0.211209,0.0875 -0.0824764,0 -0.157154,-0.0334409 -0.211213,-0.0875 -0.0272323,-0.0272323 -0.0492244,-0.0596969 -0.0643543,-0.095752l-3.93701e-006 0 -0.34385 0 0 0.721524zm1.0446 -1.86693l-5.11811e-005 0 0.00203543 0.000216535 -0.00198425 -0.000216535zm-0.368957 0.736528l0.126921 -0.390618 0.112394 -0.345909 -0.45476 0 -0.0483819 0.148894 -0.0875 0.269303 -0.0205866 0.0633543 -0.0663937 0 -0.237339 0 0 0.480587 0.328445 0c0.0128228,-0.0552598 0.041,-0.104642 0.0797638,-0.143402 0.0540591,-0.0540591 0.128736,-0.0875 0.211213,-0.0875 0.0192205,0 0.0380157,0.00182283 0.0562244,0.00529134zm-0.407783 -0.736528l-0.267862 0 0 0.298283 0.170945 0 0.0669134 -0.205945 0.0300039 -0.0923386zm0.0581535 0.97365c-0.000322835,0.00166142 -0.000622047,0.00332283 -0.000913386,0.00499606 0.000291339,-0.00167323 0.000594488,-0.00333465 0.000913386,-0.00499606zm-0.00412598 0.0295787c-0.000208661,0.00238976 -0.000393701,0.0047874 -0.000551181,0.00719291 0.00015748,-0.00240551 0.000338583,-0.00480315 0.000551181,-0.00719291zm0.000822835 0.0614528c0.000259843,0.00224803 0.000543307,0.00449606 0.000854331,0.00672835 -0.000311024,-0.00223228 -0.000594488,-0.00448031 -0.000854331,-0.00672835z"/>
 </g>
</svg>
