<svg xmlns="http://www.w3.org/2000/svg" viewBox="0 0 1406.47 1191.26"><g id="Layer_2" data-name="Layer 2"><g id="Layer_2-2" data-name="Layer 2"><path d="M803.26,283.42a35.95,35.95,0,0,0-50.84,0L661,374.81a30.62,30.62,0,1,0,43.31,43.31l42.89-42.9V887.75a30.62,30.62,0,0,0,61.24,0V375.23l42.89,42.89a30.62,30.62,0,1,0,43.3-43.31Z" fill="#f79225"/><path d="M599.57,270.28a30.61,30.61,0,1,1-43.29,43.3l-42.9-42.89V887.75a30.62,30.62,0,0,1-61.24,0V270.69l-42.89,42.89a30.62,30.62,0,0,1-43.3-43.3l91.39-91.4a35.94,35.94,0,0,1,50.86,0Zm591.83-82.14L1100,96.73a36,36,0,0,0-50.81,0l-91.4,91.4a30.62,30.62,0,1,0,43.31,43.31l42.89-42.9v699.2a30.62,30.62,0,0,0,61.24,0V188.55l42.89,42.9a30.62,30.62,0,1,0,43.3-43.31Z" fill="#fedf1d"/><path d="M1375.85,993.43H201.63V30.62a30.62,30.62,0,0,0-61.24,0V993.43H30.62a30.62,30.62,0,0,0,0,61.24H140.39v106a30.62,30.62,0,0,0,61.24,0v-106H1375.85a30.62,30.62,0,1,0,0-61.24Z" fill="#a4ce39"/></g></g></svg>